<svg width="934" height="3038" viewBox="0 0 934 3038" fill="none" xmlns="http://www.w3.org/2000/svg">
<path d="M537.956 1580.49C549.284 1807.02 569.109 2010.91 592.473 2212.67C647.699 2228.25 682.391 2203.47 720.624 2186.48C758.857 2169.49 799.922 2154.62 840.279 2151.79C904.709 2147.54 948.606 2202.05 929.489 2263.64C913.913 2312.49 893.381 2363.46 861.52 2401.69C778.682 2502.22 729.829 2618.32 685.932 2738.67C664.691 2796.01 642.034 2853.35 619.378 2909.99C608.758 2936.18 596.721 2961.67 583.269 2986.44C563.445 3022.55 531.584 3041.66 489.811 3037.42C447.33 3032.46 422.549 3006.27 411.929 2965.91C406.265 2943.26 400.6 2919.9 394.936 2897.24C353.163 2738.67 272.449 2602.04 164.123 2480.27C142.174 2455.49 116.686 2433.55 96.861 2408.06C58.6281 2357.8 80.5768 2289.84 142.174 2273.55C173.327 2265.06 207.312 2267.18 239.881 2267.18C272.449 2267.18 305.726 2272.14 338.295 2272.14C356.703 2272.14 375.112 2266.47 399.892 2262.23C427.505 2135.51 393.52 2010.91 385.024 1886.31C377.236 1764.55 363.784 1643.49 353.163 1520.31C285.194 1491.99 222.888 1470.76 165.539 1439.61C120.934 1415.54 79.8688 1382.26 43.0519 1346.87C23.9355 1328.46 14.0232 1293.06 39.5119 1270.41C55.0882 1256.96 81.9928 1247.05 101.817 1250.59C138.634 1256.25 173.327 1273.95 208.728 1285.28C243.421 1296.6 278.114 1306.51 319.179 1318.55C330.507 1248.46 326.967 1189.7 305.726 1124.57C241.297 1099.09 174.743 1076.44 111.729 1045.99C74.9124 1028.3 40.9277 1001.39 10.4829 973.076C-13.5896 951.13 6.94289 899.451 40.2197 896.619C67.8324 894.496 96.1532 897.328 123.058 902.991C173.327 912.902 222.18 927.061 269.618 938.388C304.31 899.451 287.318 861.931 284.486 825.826C267.493 609.906 249.085 393.278 233.508 177.357C230.676 135.589 234.216 92.4052 240.589 51.345C244.837 20.9038 268.201 3.20531 300.062 0.373574C334.047 -3.1661 369.448 18.7798 373.696 52.0528C385.732 150.456 394.936 248.859 404.849 347.262C425.381 553.979 445.206 759.988 465.738 966.705C467.154 980.156 473.526 993.607 479.898 1013.43C565.568 1043.87 654.071 1074.31 741.865 1106.88C776.558 1119.62 812.667 1134.49 842.403 1156.43C856.564 1167.05 865.768 1200.32 860.104 1218.02C854.44 1235.72 828.243 1258.37 810.543 1258.37C768.77 1258.37 726.997 1247.76 685.932 1237.84C627.166 1222.98 569.109 1203.86 508.219 1185.46C481.314 1259.79 505.387 1322.09 513.175 1386.51C598.137 1439.61 692.304 1458.01 777.974 1494.12C816.915 1510.4 857.98 1523.14 894.797 1543.67C920.285 1557.83 932.322 1586.86 921.701 1617.3C911.081 1647.03 885.593 1664.02 855.856 1659.77C804.879 1651.99 754.609 1639.24 704.34 1626.5C656.195 1614.47 606.634 1599.6 537.956 1580.49Z" fill="#C19A5B"/>
</svg>
