<?xml version="1.0" standalone="no"?>
<!DOCTYPE svg PUBLIC "-//W3C//DTD SVG 20010904//EN"
 "http://www.w3.org/TR/2001/REC-SVG-20010904/DTD/svg10.dtd">
<svg version="1.0" xmlns="http://www.w3.org/2000/svg"
 width="510pt" height="460pt"
 preserveAspectRatio="xMidYMid meet">

<g transform="translate(0.000000,1360.000000) scale(0.100000,-0.100000)"
fill="#3E5041" stroke="none">
<path d="M3301 13563 c1 -15 -2 -36 -6 -45 -13 -33 25 -35 52 -3 34 38 27 69
-15 73 -30 3 -32 1 -31 -25z"/>
<path d="M2810 13413 c-17 -22 -20 -35 -14 -72 12 -89 60 -119 103 -65 28 36
29 123 3 147 -28 26 -67 21 -92 -10z m60 -67 c0 -49 -7 -61 -27 -45 -16 14
-17 37 -1 71 17 36 28 25 28 -26z"/>
<path d="M3975 13230 c-4 -6 -4 -14 -1 -17 3 -3 -3 -17 -14 -31 -20 -25 -19
-42 5 -42 19 0 67 59 63 79 -4 19 -43 27 -53 11z"/>
<path d="M2626 13133 c-16 -54 -32 -114 -36 -133 -5 -19 -16 -55 -25 -80 -22
-60 -45 -166 -45 -212 0 -24 -7 -45 -20 -58 -10 -10 -26 -44 -35 -75 -14 -45
-15 -67 -6 -122 9 -56 8 -70 -4 -83 -9 -10 -15 -36 -15 -64 0 -64 56 -280 87
-338 25 -45 25 -49 9 -67 -9 -10 -14 -25 -10 -35 7 -19 76 -61 117 -70 l28 -7
-6 -72 c-10 -108 -44 -282 -67 -344 -27 -74 -56 -103 -163 -163 -49 -29 -101
-61 -114 -73 -34 -32 -101 -135 -101 -157 0 -29 -45 -30 -115 -3 -65 25 -126
60 -221 128 -52 37 -61 40 -123 40 -56 -1 -78 -6 -141 -38 -124 -61 -320 -216
-438 -347 -116 -127 -157 -199 -167 -289 -11 -92 -23 -116 -101 -198 -101
-105 -114 -135 -114 -254 0 -117 19 -194 70 -280 36 -60 110 -141 139 -150 25
-9 -43 -313 -84 -375 -17 -27 -100 -91 -214 -167 l-85 -56 -16 27 c-59 97
-170 152 -218 109 -10 -10 -24 -17 -30 -17 -45 0 -361 -348 -362 -397 0 -28
16 -30 30 -4 5 11 27 40 48 64 20 25 64 80 97 123 65 84 169 194 185 194 6 0
10 -10 10 -22 0 -13 3 -33 6 -44 5 -18 0 -22 -28 -28 -73 -14 -127 -73 -82
-90 31 -12 74 -7 74 9 0 10 -10 15 -32 15 l-32 0 20 21 c12 11 37 24 57 29 41
9 29 23 134 -165 25 -44 52 -87 60 -97 13 -15 7 -18 -75 -37 -49 -12 -95 -21
-103 -21 -21 0 53 71 94 90 47 21 35 33 -19 18 -51 -14 -127 -88 -122 -120 3
-21 7 -23 65 -21 53 1 131 18 187 39 10 4 30 -18 64 -68 28 -40 69 -91 92
-113 23 -22 66 -71 95 -110 29 -38 68 -86 86 -106 49 -52 222 -197 304 -254
39 -27 89 -66 113 -86 23 -20 59 -45 80 -54 20 -10 38 -19 40 -20 5 -4 -56
-123 -67 -129 -20 -13 -29 91 -10 126 18 34 1 32 -20 -3 -12 -19 -21 -46 -21
-61 0 -16 -4 -28 -10 -28 -5 0 -10 -7 -10 -15 0 -8 4 -15 9 -15 5 0 13 -9 16
-20 8 -25 50 -37 71 -19 9 7 31 44 50 81 32 64 36 68 62 62 15 -4 29 -9 31
-11 3 -2 -18 -27 -46 -56 -28 -28 -75 -86 -104 -127 -68 -96 -223 -295 -262
-337 -20 -21 -27 -37 -23 -49 6 -15 9 -15 33 7 34 32 201 241 283 354 82 114
144 193 181 227 47 43 37 87 -34 149 l-40 35 53 155 c78 228 139 382 158 400
16 16 74 36 310 108 116 36 145 57 140 103 -4 42 -38 64 -118 78 -126 23 -174
35 -177 47 -6 17 53 79 105 109 74 43 160 114 183 151 26 42 19 80 -19 94 -58
22 -236 -36 -345 -113 -15 -11 -33 -18 -40 -15 -12 4 147 167 242 247 42 35
54 51 54 74 -1 59 -50 60 -209 5 -66 -22 -167 -63 -225 -90 -58 -27 -111 -49
-117 -49 -32 0 5 79 107 232 101 151 129 214 111 247 -17 34 -57 37 -109 10
-58 -30 -295 -265 -345 -342 -33 -51 -40 -57 -52 -45 -12 12 -38 133 -60 274
-9 61 -62 102 -100 76 -20 -13 -45 -73 -51 -123 -3 -27 -9 -52 -14 -54 -10 -7
-92 119 -131 201 -29 62 -32 80 -36 184 -5 140 4 163 98 255 78 76 95 110 109
214 14 108 38 151 159 285 155 171 409 348 520 363 58 8 80 0 156 -58 70 -53
206 -122 264 -134 19 -4 32 -12 29 -18 -58 -155 -58 -170 4 -229 85 -81 276
-150 313 -113 38 38 4 149 -62 206 -32 27 -40 40 -35 57 3 12 8 22 12 22 28 0
252 -55 321 -78 139 -47 188 -77 280 -171 67 -67 91 -99 109 -146 74 -186 120
-282 186 -390 76 -124 87 -154 105 -289 7 -56 7 -82 -1 -92 -12 -15 -4 -34 14
-34 7 -1 26 -13 43 -28 33 -29 43 -71 79 -338 19 -132 15 -147 -52 -200 -103
-83 -150 -137 -162 -184 -22 -90 -51 -176 -71 -208 -29 -47 -127 -107 -208
-127 -43 -10 -122 -17 -213 -19 -79 -2 -178 -11 -219 -19 -82 -17 -455 -34
-513 -23 -30 6 -45 19 -87 76 -27 39 -55 70 -61 70 -6 0 9 -37 33 -82 31 -58
53 -87 73 -98 52 -25 397 -14 635 20 41 7 121 11 177 10 159 -1 256 27 365
107 56 41 99 121 124 233 19 82 45 118 134 183 110 81 117 102 96 274 -15 119
-41 274 -52 316 -3 9 -22 28 -42 42 -23 16 -37 34 -38 48 -1 33 -14 125 -26
187 -12 61 -29 99 -82 180 -44 66 -114 203 -145 282 l-23 56 21 29 c23 31 52
163 70 313 16 126 41 260 53 285 19 37 78 103 132 150 l55 46 43 -22 c30 -16
61 -23 105 -23 61 -1 62 0 100 43 51 60 81 103 128 181 21 36 57 88 80 115 23
28 47 61 54 73 7 13 29 42 49 64 47 51 152 193 240 323 70 104 81 117 171 219
59 67 86 119 97 184 6 37 4 42 -13 42 -15 0 -23 -11 -33 -42 -18 -63 -45 -111
-90 -163 -22 -25 -43 -57 -46 -71 -6 -22 -12 -14 -50 66 -34 71 -48 91 -61 88
-25 -5 -19 -38 18 -116 20 -39 29 -71 25 -85 -3 -13 -37 -68 -75 -122 -39 -55
-105 -151 -148 -212 -47 -69 -84 -113 -94 -113 -10 0 -20 -6 -22 -12 -4 -9 -6
-8 -6 3 -1 8 10 26 24 39 33 31 32 60 -4 94 -44 42 -74 8 -34 -37 17 -18 17
-20 -10 -39 -27 -19 -28 -24 -22 -71 7 -49 7 -50 -16 -43 -61 19 -78 18 -102
-6 -13 -13 -26 -30 -29 -38 -3 -10 -10 -9 -32 5 -22 15 -33 16 -61 8 -32 -10
-34 -10 -25 7 24 46 -5 90 -60 90 l-25 1 32 27 c17 15 46 36 64 47 40 24 47
49 22 78 -10 12 -1 7 20 -11 55 -46 71 -42 104 25 31 63 43 72 66 49 11 -11
14 -27 10 -56 -3 -23 -1 -40 4 -40 10 0 33 65 33 93 0 21 -47 57 -75 57 -27 0
-85 -62 -85 -90 0 -26 -8 -25 -31 4 -11 14 -28 27 -38 31 -16 5 -18 10 -8 35
14 36 -4 60 -44 60 -22 0 -29 -5 -29 -20 0 -11 7 -20 15 -20 20 0 18 -10 -8
-42 -31 -38 -87 -78 -109 -78 -30 0 -34 31 -8 52 37 30 14 34 -25 4 -42 -32
-44 -48 -9 -75 35 -28 63 -26 109 4 35 25 38 25 51 8 19 -25 18 -25 -27 -53
-52 -32 -81 -72 -77 -107 3 -25 7 -28 46 -31 47 -4 49 -7 25 -57 -16 -33 -16
-37 0 -52 15 -15 19 -15 57 2 39 18 43 18 70 2 43 -26 66 -21 90 18 22 35 35
41 57 27 13 -9 -127 -246 -148 -249 -8 -2 -31 21 -51 51 -26 37 -64 72 -128
115 -70 49 -90 67 -84 80 27 64 28 71 17 82 -18 18 -43 3 -43 -25 0 -38 -15
-39 -62 -8 -24 16 -77 49 -118 74 l-75 45 0 89 c0 103 -17 144 -60 144 -34 0
-57 -30 -75 -97 -16 -62 -26 -70 -54 -50 -18 13 -18 15 -3 38 25 35 21 67 -14
101 l-31 31 22 39 c14 24 19 46 15 59 -7 21 -12 22 -100 16 -92 -5 -93 -5 -99
19 -9 33 -55 32 -95 -2 l-31 -25 -35 26 c-34 26 -36 27 -61 10 -14 -9 -32 -31
-39 -48 -12 -27 -14 -28 -15 -10 0 13 -7 59 -16 104 -14 67 -14 83 -3 89 10 7
9 29 -8 122 -11 62 -17 114 -13 116 5 2 6 28 3 57 -5 51 -4 56 25 83 17 16 46
32 63 36 48 9 117 7 124 -4 10 -16 45 -12 45 5 0 8 -14 24 -30 34 l-30 18 134
7 c117 6 139 5 161 -10 23 -15 27 -15 49 0 13 8 35 34 47 56 l23 41 61 -6 c50
-6 65 -4 78 10 32 31 20 52 -66 118 -43 32 -44 43 -17 98 12 23 18 48 15 60
-7 22 -45 34 -80 25 -14 -3 -36 -9 -49 -12 -17 -4 -30 1 -49 20 -14 14 -31 26
-37 26 -17 0 -50 -39 -50 -60 0 -29 30 -38 46 -15 8 10 14 14 14 7 0 -6 11
-19 25 -28 24 -15 28 -15 71 1 25 9 47 15 50 13 2 -3 -3 -21 -11 -41 -8 -20
-15 -46 -15 -58 0 -21 42 -68 90 -102 25 -17 24 -17 -31 -11 -53 6 -57 5 -82
-26 -15 -17 -27 -36 -27 -41 0 -20 -43 -7 -66 20 -13 16 -38 32 -54 36 -29 6
-29 7 -16 34 18 33 7 56 -37 76 l-32 15 33 -6 c48 -8 39 4 -23 32 -38 17 -68
24 -97 22 -38 -3 -43 -6 -43 -28 0 -21 9 -28 73 -51 41 -15 76 -30 79 -33 3
-2 -9 -24 -26 -49 -20 -27 -29 -50 -25 -60 7 -20 36 -22 63 -6 10 7 30 9 46 5
23 -6 26 -9 14 -17 -17 -11 -261 -12 -309 0 -44 10 -60 5 -60 -21 0 -13 5 -18
14 -15 19 7 87 -14 80 -25 -3 -4 -23 -8 -45 -8 -22 0 -49 -5 -60 -10 -11 -6
-19 -7 -19 -1 0 21 51 201 75 265 14 37 27 80 30 95 2 14 12 58 23 98 11 40
17 74 14 77 -17 18 -31 -4 -56 -91z m24 -1088 c29 -23 48 -23 83 0 l35 24 17
-25 c15 -24 20 -25 73 -19 31 3 68 8 81 11 20 4 22 2 16 -13 -31 -75 -31 -71
5 -108 30 -31 32 -37 22 -60 -14 -30 -29 -31 -62 -7 -14 9 -50 22 -80 27 l-55
10 -3 40 c-2 22 -11 48 -19 58 -22 23 -70 22 -83 -2 -13 -25 -13 -51 0 -51 6
0 10 6 10 14 0 19 25 27 39 13 15 -15 14 -58 -1 -52 -7 3 -46 8 -87 13 -45 4
-76 12 -79 20 -2 7 2 10 10 7 10 -4 13 7 13 43 0 50 19 87 39 75 6 -3 18 -11
26 -18z m514 -186 c3 -17 6 -54 6 -81 0 -47 -1 -49 -22 -42 -13 3 -33 12 -45
18 l-22 11 29 63 c16 34 34 62 38 62 5 0 12 -14 16 -31z m-619 -989 c3 -6 -4
-10 -17 -10 -18 0 -20 2 -8 10 19 12 18 12 25 0z m-166 -82 c-2 -2 -17 -14
-34 -28 l-30 -25 29 32 c16 18 32 31 34 28 3 -3 3 -6 1 -7z m24 -55 c4 -3 -12
-15 -35 -25 -33 -15 -39 -21 -28 -28 8 -5 11 -10 6 -10 -5 0 -18 8 -29 17 -18
17 -18 18 20 35 43 19 57 21 66 11z m-693 -948 c0 -3 -7 -22 -16 -43 -14 -32
-17 -34 -23 -18 -4 11 -16 23 -27 26 -17 6 -15 9 11 23 30 16 55 22 55 12z
m-585 -55 c3 -5 -1 -10 -9 -10 -9 0 -16 5 -16 10 0 6 4 10 9 10 6 0 13 -4 16
-10z m513 -22 c-3 -7 -17 -15 -33 -18 -32 -6 -45 -27 -21 -35 9 -3 23 -7 31
-10 14 -4 13 -10 -4 -42 -11 -21 -31 -51 -44 -67 -21 -25 -26 -27 -46 -17 -30
16 -41 5 -14 -14 l21 -15 -29 -71 c-35 -85 -35 -93 -8 -120 27 -27 53 -22 165
32 48 22 104 47 124 54 35 12 39 12 43 -4 3 -12 18 -21 41 -25 l37 -7 -80 -85
c-81 -86 -106 -133 -89 -166 12 -25 45 -22 98 8 28 16 52 23 67 19 13 -3 23
-1 23 5 0 5 -6 10 -12 10 -13 1 110 69 126 70 4 0 -6 -16 -23 -36 -38 -42 -36
-59 7 -59 18 0 32 -1 32 -2 0 -1 -25 -19 -56 -38 l-56 -36 -27 25 c-37 35 -42
33 -20 -10 l18 -37 -24 -29 c-48 -57 -41 -108 19 -133 17 -7 70 -19 116 -25
93 -13 114 -20 57 -20 -32 0 -37 -3 -37 -23 0 -13 5 -28 11 -34 9 -9 -1 -15
-37 -26 -52 -15 -65 -14 -46 5 15 15 16 28 2 28 -5 0 -16 -13 -24 -28 -12 -24
-29 -33 -93 -52 -94 -27 -149 -54 -162 -78 -14 -25 -105 -274 -158 -427 -24
-71 -50 -134 -56 -140 -25 -21 -46 -62 -36 -72 10 -10 2 -43 -10 -43 -3 0 -28
17 -55 38 -27 20 -95 71 -151 112 -167 123 -282 227 -345 314 -32 45 -82 104
-110 131 -28 28 -66 70 -83 95 -17 25 -50 69 -75 99 -45 57 -92 140 -92 164 0
8 18 21 40 30 24 9 40 22 40 32 0 10 7 15 18 13 10 -1 24 3 32 10 8 7 43 29
78 50 34 20 99 64 142 96 67 50 85 69 110 120 17 34 40 107 53 164 21 99 23
102 50 102 15 0 27 5 27 10 0 6 -11 10 -25 10 -31 0 -33 22 -5 57 11 14 22 40
26 59 11 58 28 53 20 -6 -7 -49 -6 -52 12 -47 18 4 21 -2 27 -52 4 -31 13 -70
20 -88 16 -38 57 -67 83 -59 10 4 42 41 72 83 64 92 173 210 203 219 12 4 33
15 46 25 27 22 55 25 49 7z m367 -278 l-29 -30 -12 22 c-11 19 -10 24 4 30 9
4 28 7 41 7 l25 1 -29 -30z m-140 -20 c-3 -5 -12 -10 -18 -10 -7 0 -6 4 3 10
19 12 23 12 15 0z m289 -189 c7 -11 -41 -71 -57 -71 -8 0 -7 4 1 12 7 7 12 25
12 40 0 21 5 28 19 28 11 0 22 -4 25 -9z m-1659 -150 c28 -16 65 -45 83 -64
l34 -35 -29 -19 c-15 -11 -42 -27 -59 -35 l-32 -15 -36 61 c-33 56 -46 113
-29 129 10 10 14 9 68 -22z m1652 -276 c8 -22 -6 -33 -17 -15 -13 20 -12 30 0
30 6 0 13 -7 17 -15z m-568 -883 c14 -29 -4 -38 -56 -25 -40 10 -42 17 -22 70
l9 24 29 -23 c16 -13 34 -33 40 -46z"/>
<path d="M1520 9583 c0 -7 32 -32 43 -33 17 0 5 18 -18 28 -14 6 -25 9 -25 5z"/>
<path d="M1766 9332 c-7 -11 31 -58 40 -49 4 4 1 18 -6 32 -14 25 -25 31 -34
17z"/>
<path d="M1700 9300 c0 -5 4 -10 9 -10 5 0 18 -14 29 -31 13 -21 22 -27 27
-19 4 7 -4 24 -21 41 -29 30 -44 37 -44 19z"/>
<path d="M3503 13194 c-35 -18 -50 -42 -30 -50 7 -2 27 2 43 11 39 20 47 19
84 -11 103 -87 62 -206 -43 -123 -15 11 -27 29 -27 40 0 10 -4 19 -10 19 -18
0 -11 -46 11 -74 44 -56 113 -72 148 -34 31 33 36 79 13 129 -40 91 -119 129
-189 93z"/>
<path d="M3282 13160 c-30 -32 -28 -67 3 -82 48 -22 75 36 37 82 l-19 23 -21
-23z"/>
<path d="M4468 13083 c-16 -2 -28 -11 -28 -19 0 -20 34 -17 61 6 25 20 21 21
-33 13z"/>
<path d="M4038 13025 c-29 -20 -43 -40 -65 -100 -25 -66 -31 -75 -53 -75 -14
0 -36 -7 -48 -16 -20 -14 -21 -17 -8 -42 8 -15 33 -38 56 -51 l43 -24 -27 -16
c-38 -23 -45 -59 -15 -84 23 -18 36 -18 97 -1 18 5 22 2 22 -15 0 -61 47 -79
97 -37 42 34 68 46 105 46 19 0 44 7 57 16 19 14 22 23 17 52 -3 19 -15 45
-27 58 -21 22 -21 26 -9 65 17 51 8 68 -48 85 -60 17 -72 30 -72 78 0 83 -51
109 -122 61z m72 -69 c0 -55 28 -91 85 -111 24 -8 38 -19 36 -27 -15 -48 -12
-70 13 -102 14 -19 26 -39 26 -44 0 -14 -25 -22 -65 -22 -24 0 -45 -9 -70 -32
-30 -26 -38 -29 -46 -17 -5 8 -9 22 -9 32 0 27 -42 42 -81 28 -51 -18 -57 -13
-16 14 52 36 48 58 -15 92 -28 15 -52 33 -52 38 -1 6 16 14 37 19 20 5 37 16
37 23 0 23 59 131 77 142 34 20 43 13 43 -33z"/>
<path d="M4080 12744 c-15 -38 -9 -58 17 -62 30 -4 46 27 30 58 -17 34 -35 36
-47 4z"/>
<path d="M2975 12956 c-39 -39 -42 -71 -10 -101 37 -33 79 -33 101 1 25 37 22
83 -5 106 -31 24 -57 23 -86 -6z m63 -47 c2 -9 -5 -24 -14 -34 -15 -14 -19
-15 -31 -2 -12 12 -13 19 -3 36 13 25 43 24 48 0z"/>
<path d="M4523 12830 c-34 -27 -64 -58 -67 -68 -5 -14 -14 -17 -39 -14 -70 8
-90 -57 -32 -105 l35 -28 -35 -55 c-41 -64 -44 -87 -11 -101 30 -14 79 8 126
56 l34 35 27 -26 c19 -18 35 -25 55 -22 26 3 29 7 34 48 4 33 11 47 27 56 80
39 81 79 6 133 -27 18 -33 29 -33 59 0 43 -23 82 -48 82 -10 0 -45 -22 -79
-50z m77 -45 c0 -36 17 -60 70 -98 14 -10 21 -20 15 -22 -57 -27 -75 -46 -75
-81 l0 -36 -31 26 c-17 14 -34 26 -39 26 -4 0 -34 -21 -65 -46 -57 -46 -86
-53 -48 -11 24 26 43 61 43 78 0 6 -16 27 -36 45 l-35 34 28 0 c17 0 33 -8 40
-19 10 -15 73 -36 73 -24 0 3 -12 20 -26 38 -17 23 -23 39 -17 49 9 15 83 74
96 75 4 1 7 -15 7 -34z"/>
<path d="M4533 12643 c-23 -9 -15 -35 10 -31 12 2 22 9 22 17 0 16 -14 22 -32
14z"/>
<path d="M3626 12774 c-18 -18 -20 -30 -6 -39 6 -3 10 -15 10 -26 0 -26 6 -24
35 9 28 31 32 57 9 66 -24 9 -31 8 -48 -10z"/>
<path d="M3382 12718 c-49 -53 -48 -118 2 -118 30 0 86 62 86 93 0 49 -51 63
-88 25z m27 -50 c-9 -16 -14 -19 -17 -9 -2 7 2 17 9 22 20 13 21 11 8 -13z"/>
<path d="M2716 12589 c-44 -35 -70 -96 -71 -172 -3 -134 25 -230 71 -248 31
-11 59 13 90 73 59 116 62 273 8 338 -30 35 -61 38 -98 9z m64 -59 c18 -34 23
-105 10 -166 -13 -63 -47 -144 -60 -144 -16 0 -30 66 -32 156 -3 84 -1 93 25
132 30 47 41 51 57 22z"/>
<path d="M3016 12551 c-32 -34 -29 -61 7 -61 45 0 78 48 51 75 -21 21 -26 19
-58 -14z"/>
<path d="M3156 12459 c-21 -24 -26 -41 -26 -83 0 -57 5 -67 26 -59 9 3 14 20
14 48 0 29 6 47 19 59 19 17 20 16 27 -31 12 -82 39 -94 99 -41 l37 31 -7 -37
c-6 -30 -3 -41 14 -60 l21 -22 -25 -24 c-19 -17 -25 -33 -24 -55 1 -16 -6 -49
-16 -72 -16 -38 -22 -43 -51 -43 -26 0 -36 6 -46 28 -11 22 -20 27 -49 27
l-36 0 20 31 c20 30 21 30 39 12 23 -23 43 -23 68 2 24 24 26 58 4 89 -15 21
-22 23 -66 18 -41 -5 -53 -3 -71 13 -45 42 -147 21 -147 -31 0 -25 52 -65 96
-73 l37 -7 -42 -43 c-43 -44 -51 -75 -25 -97 14 -11 24 -9 68 14 50 27 51 27
66 9 23 -28 54 -42 94 -42 37 0 62 19 77 58 7 18 14 22 27 16 9 -4 33 -8 52
-8 29 -1 36 3 38 21 2 14 -4 26 -20 34 -13 6 -33 21 -46 32 l-22 21 36 37 c44
45 45 82 1 87 -22 3 -27 7 -21 20 16 37 15 69 -1 85 -24 25 -50 21 -89 -13
l-34 -30 -7 37 c-10 57 -22 73 -54 73 -20 0 -37 -10 -55 -31z m-32 -214 c17
-13 15 -14 -20 -8 -57 8 -77 22 -34 22 19 0 43 -6 54 -14z m106 -32 c0 -20
-24 -11 -28 10 -2 12 1 15 12 11 9 -3 16 -13 16 -21z"/>
<path d="M3767 12463 c-22 -25 -47 -87 -47 -117 0 -26 25 -41 51 -31 28 11 62
75 63 118 1 38 -2 42 -25 45 -15 2 -32 -5 -42 -15z m4 -86 c-10 -9 -11 -8 -5
6 3 10 9 15 12 12 3 -3 0 -11 -7 -18z"/>
<path d="M4010 12466 c0 -20 49 -76 65 -76 17 0 28 34 20 61 -5 16 -12 19 -30
15 -13 -3 -27 -2 -30 4 -9 15 -25 12 -25 -4z"/>
<path d="M4042 12179 c-34 -22 -40 -55 -9 -53 9 1 17 -2 17 -7 0 -16 37 -9 64
12 63 49 -3 92 -72 48z"/>
<path d="M3647 12152 c-51 -53 -22 -72 39 -26 19 15 34 33 34 40 0 24 -45 15
-73 -14z"/>
<path d="M4103 12093 c-15 -6 -18 -43 -3 -43 6 0 6 -9 0 -24 -6 -17 -5 -29 5
-42 22 -30 49 -6 53 45 4 57 -16 80 -55 64z"/>
<path d="M3772 11738 c-7 -7 -12 -24 -12 -38 0 -14 5 -31 12 -38 30 -30 88 1
88 46 0 35 -62 56 -88 30z"/>
<path d="M6160 11041 c-14 -5 -52 -16 -85 -25 -226 -63 -323 -106 -655 -287
-188 -103 -214 -120 -297 -199 l-64 -62 15 -67 c8 -37 22 -83 31 -104 8 -20
15 -60 15 -88 0 -43 -6 -61 -37 -107 -51 -78 -62 -114 -63 -210 l0 -83 47 -50
c60 -64 93 -83 286 -164 216 -90 280 -106 447 -106 113 -1 150 3 230 24 52 13
97 21 98 16 5 -13 59 -11 85 2 63 33 163 119 218 187 97 122 188 265 219 344
46 120 83 334 78 444 -8 153 -55 215 -182 244 -61 13 -96 31 -171 87 -69 52
-99 90 -123 159 -19 52 -39 62 -92 45z m-30 -91 c-25 -22 -54 -43 -65 -46 -11
-4 -34 -17 -51 -30 -62 -48 -441 -251 -450 -242 -2 2 58 37 134 77 235 126
392 222 392 242 0 12 11 22 33 28 53 15 54 12 7 -29z m218 -152 c38 -30 67
-58 66 -63 -4 -14 44 -71 52 -62 4 4 -1 16 -11 27 -10 11 -16 22 -14 24 5 5
125 -31 158 -47 82 -41 101 -169 56 -390 -40 -203 -81 -296 -197 -450 -105
-141 -121 -158 -197 -213 -64 -47 -75 -52 -85 -38 -10 12 -17 13 -41 4 -65
-25 -229 -50 -329 -50 -143 0 -230 19 -392 85 -187 76 -267 120 -310 168 l-36
40 4 77 c4 70 9 85 48 152 26 42 47 92 51 118 6 43 6 44 8 9 1 -38 24 -69 36
-49 6 10 -12 230 -20 238 -13 13 -25 -16 -25 -61 l-1 -52 -39 100 c-43 113
-41 134 13 107 40 -21 212 -22 302 -3 143 31 303 101 435 190 30 20 84 55 120
76 36 21 103 77 149 124 l84 85 23 -46 c16 -31 47 -65 92 -100z m-283 42 c-3
-5 -20 -19 -38 -30 l-32 -22 35 31 c35 32 46 38 35 21z m-265 -174 c0 -19
-287 -142 -313 -133 -5 1 22 13 59 26 38 12 110 42 159 66 104 50 95 46 95 41z
m-575 -106 c-3 -5 -16 -15 -28 -21 -19 -9 -19 -8 3 10 28 23 34 26 25 11z m74
-41 c-8 -5 -23 -9 -34 -9 -17 0 -15 4 10 20 19 12 31 16 34 9 2 -6 -3 -15 -10
-20z m-139 -9 c0 -5 -5 -10 -11 -10 -5 0 -7 5 -4 10 3 6 8 10 11 10 2 0 4 -4
4 -10z"/>
<path d="M6274 10805 c-10 -26 65 -135 93 -135 7 0 13 9 13 20 0 11 -4 20 -8
20 -5 0 -23 20 -41 45 -18 25 -27 45 -21 45 6 0 8 5 5 10 -9 15 -35 12 -41 -5z"/>
<path d="M6175 10780 c-20 -32 83 -127 108 -100 9 9 8 15 -7 24 -39 24 -76 58
-76 72 0 16 -16 19 -25 4z"/>
<path d="M6064 10687 c-13 -35 94 -133 119 -108 7 7 7 14 2 19 -6 5 -34 30
-62 57 -41 37 -54 44 -59 32z"/>
<path d="M5970 10593 c0 -13 65 -53 84 -53 28 0 12 25 -18 28 -15 2 -30 10
-33 18 -5 14 -33 20 -33 7z"/>
<path d="M5860 10516 c0 -27 42 -66 71 -66 30 0 22 27 -12 39 -17 6 -33 20
-36 31 -7 28 -23 25 -23 -4z"/>
<path d="M5745 10479 c-9 -13 43 -119 62 -126 8 -3 19 -1 26 6 8 8 5 16 -11
31 -12 12 -31 39 -42 60 -22 43 -25 46 -35 29z"/>
<path d="M5630 10425 c0 -42 21 -88 58 -127 53 -57 72 -22 22 40 -16 20 -36
54 -44 74 -22 51 -36 57 -36 13z"/>
<path d="M5538 10405 c-5 -6 10 -113 18 -127 6 -9 34 -11 34 -3 0 7 -41 129
-44 133 -2 1 -5 0 -8 -3z"/>
<path d="M5431 10356 c-8 -9 -8 -28 -1 -66 12 -65 34 -100 60 -100 23 0 26 17
7 39 -19 23 -50 109 -43 120 10 16 -11 22 -23 7z"/>
<path d="M5345 10303 c14 -88 28 -135 42 -140 25 -10 35 11 18 43 -8 16 -15
35 -15 41 0 20 -34 93 -43 93 -4 0 -5 -17 -2 -37z"/>
<path d="M5264 10233 c8 -85 11 -93 32 -93 19 0 18 36 -3 110 -23 85 -37 77
-29 -17z"/>
<path d="M1340 9981 c0 -5 8 -12 19 -16 10 -3 29 -26 42 -50 22 -41 49 -60 49
-35 0 21 -30 69 -56 89 -28 22 -54 28 -54 12z"/>
<path d="M1110 9897 c-44 -23 -71 -57 -34 -43 110 43 177 30 225 -44 30 -46
59 -65 59 -40 0 24 -41 89 -75 118 -46 41 -110 44 -175 9z"/>
<path d="M1923 9912 c-29 -4 -30 -22 -1 -22 36 0 179 -76 245 -130 84 -68 157
-159 201 -252 20 -43 43 -78 50 -78 20 0 14 18 -40 121 -77 149 -181 260 -298
319 -54 28 -127 47 -157 42z"/>
<path d="M7534 9879 c-10 -17 13 -36 27 -22 12 12 4 33 -11 33 -5 0 -12 -5
-16 -11z"/>
<path d="M2261 9837 c2 -2 25 -23 51 -46 26 -24 52 -40 58 -36 22 13 -64 85
-101 85 -7 0 -10 -1 -8 -3z"/>
<path d="M4805 9070 c-3 -5 -19 -10 -35 -10 -66 0 -413 -145 -465 -194 -18
-17 -39 -30 -45 -28 -27 9 -2 -24 31 -41 25 -13 46 -16 82 -12 119 15 292 99
402 197 29 27 56 48 58 48 3 0 8 -13 12 -29 14 -66 79 -90 241 -89 126 1 162
-16 189 -92 15 -45 19 -80 18 -191 0 -121 -4 -148 -32 -250 -74 -259 -186
-362 -411 -376 -72 -4 -99 -1 -175 22 -132 38 -304 139 -426 248 -147 132
-148 153 -13 282 91 88 97 102 73 188 -16 57 -37 42 -31 -23 4 -44 -13 -72
-71 -121 -116 -97 -145 -160 -110 -240 29 -65 208 -214 353 -296 160 -89 248
-116 375 -116 260 -1 403 120 491 413 35 118 38 133 36 253 -1 121 -11 187
-44 270 -6 16 -30 39 -55 54 -40 23 -57 26 -166 30 -180 6 -178 5 -212 63 -28
47 -56 63 -70 40z m-245 -137 c-1 -11 -105 -73 -122 -73 -8 0 -23 -7 -34 -15
-18 -14 -104 -22 -91 -8 7 7 226 101 240 102 4 1 7 -2 7 -6z"/>
<path d="M200 8880 c-12 -7 -12 -12 -2 -22 9 -9 15 -9 24 0 16 16 -2 34 -22
22z"/>
<path d="M283 8848 c-29 -14 -30 -45 -3 -53 22 -7 70 18 70 35 0 6 7 10 16 10
8 0 12 5 9 10 -8 13 -64 12 -92 -2z"/>
<path d="M2273 8657 c-13 -17 -33 -44 -45 -59 -12 -15 -19 -31 -15 -34 9 -9
118 106 111 117 -10 17 -29 9 -51 -24z"/>
<path d="M270 8645 c0 -8 7 -15 15 -15 8 0 15 7 15 15 0 8 -7 15 -15 15 -8 0
-15 -7 -15 -15z"/>
<path d="M78 8629 c-28 -16 -23 -49 7 -49 23 0 45 24 45 49 0 14 -29 14 -52 0z"/>
<path d="M440 8550 c-73 -21 -180 -91 -180 -119 0 -56 75 -56 159 0 55 37 68
54 61 84 -1 6 -3 15 -4 22 -3 19 -9 21 -36 13z m0 -50 c0 -16 -99 -71 -122
-68 -20 3 -15 9 35 45 52 37 87 46 87 23z"/>
<path d="M604 8419 c-10 -17 13 -36 27 -22 12 12 4 33 -11 33 -5 0 -12 -5 -16
-11z"/>
<path d="M113 8408 c2 -7 10 -13 17 -13 7 0 15 6 18 13 2 7 -5 12 -18 12 -13
0 -20 -5 -17 -12z"/>
<path d="M410 8245 c0 -8 7 -15 15 -15 8 0 15 7 15 15 0 8 -7 15 -15 15 -8 0
-15 -7 -15 -15z"/>
<path d="M587 8244 c-4 -4 -7 -16 -7 -27 0 -10 -22 -43 -48 -72 -26 -28 -65
-86 -86 -128 -34 -67 -38 -80 -28 -102 34 -74 143 35 187 187 24 83 12 172
-18 142z m-42 -181 c-29 -64 -74 -128 -83 -118 -3 3 18 53 48 111 38 73 56 99
58 85 2 -12 -8 -47 -23 -78z"/>
<path d="M188 8187 c-93 -112 -119 -185 -80 -220 35 -32 92 -15 143 40 38 40
49 66 49 113 0 62 -30 110 -70 110 -4 0 -23 -19 -42 -43z m76 -42 c9 -35 -15
-85 -58 -123 -40 -35 -63 -40 -73 -16 -7 19 7 52 55 126 29 45 40 55 53 47 9
-4 20 -20 23 -34z"/>
<path d="M886 8169 c-20 -34 -15 -59 12 -59 20 0 62 39 62 58 0 20 -27 13 -43
-10 -13 -19 -16 -20 -16 -6 -1 9 4 20 9 23 6 3 10 10 10 16 0 18 -16 8 -34
-22z"/>
<path d="M790 8170 c0 -5 7 -10 15 -10 8 0 15 5 15 10 0 6 -7 10 -15 10 -8 0
-15 -4 -15 -10z"/>
<path d="M990 7974 c-58 -9 -100 -26 -100 -39 0 -7 9 -15 20 -17 17 -3 14 -9
-25 -50 -25 -27 -45 -54 -45 -62 0 -8 12 -28 26 -45 34 -40 71 -40 158 -1 170
76 212 147 113 190 -46 20 -108 30 -147 24z m118 -55 c35 -12 42 -34 15 -56
-35 -27 -173 -93 -196 -93 -13 0 -32 9 -41 19 -21 23 -10 50 36 89 16 14 27
31 24 38 -9 24 89 26 162 3z"/>
<path d="M298 7802 c-10 -2 -18 -8 -18 -13 0 -13 27 -11 35 2 9 13 4 16 -17
11z"/>
<path d="M1160 7721 c0 -11 5 -23 10 -26 16 -10 12 -22 -10 -28 -23 -6 -27
-35 -5 -43 23 -9 65 23 65 49 0 28 -26 67 -46 67 -8 0 -14 -9 -14 -19z"/>
<path d="M687 7724 c-13 -13 -7 -24 14 -24 11 0 19 5 17 12 -5 14 -22 21 -31
12z"/>
<path d="M813 7560 c4 -15 0 -20 -14 -20 -28 0 -23 -17 7 -23 35 -6 61 2 68
20 9 22 -12 43 -41 43 -20 0 -24 -4 -20 -20z"/>
<path d="M1080 7560 c0 -5 7 -10 15 -10 8 0 15 5 15 10 0 6 -7 10 -15 10 -8 0
-15 -4 -15 -10z"/>
<path d="M943 7447 c-57 -49 -79 -77 -113 -138 -43 -80 -37 -119 16 -119 32 0
134 97 168 160 24 44 26 55 17 78 -7 15 -20 33 -31 40 -17 10 -25 7 -57 -21z
m45 -24 c12 -24 6 -39 -39 -98 -37 -50 -96 -101 -105 -92 -15 14 98 207 121
207 8 0 18 -8 23 -17z"/>
<path d="M1135 7469 c-4 -6 -5 -13 -2 -16 7 -7 27 6 27 18 0 12 -17 12 -25 -2z"/>
<path d="M1010 7220 c0 -5 7 -10 15 -10 8 0 15 5 15 10 0 6 -7 10 -15 10 -8 0
-15 -4 -15 -10z"/>
<path d="M4287 7034 c-16 -8 -26 -21 -24 -27 5 -17 81 -21 95 -5 25 31 -28 55
-71 32z"/>
<path d="M5128 7043 c-59 -4 -85 -21 -74 -48 5 -13 16 -15 65 -9 33 3 80 3
104 0 36 -6 44 -10 40 -25 -5 -21 21 -45 41 -38 8 3 15 14 15 24 0 10 3 30 6
45 5 20 2 29 -12 36 -23 13 -113 20 -185 15z"/>
<path d="M5703 7014 c-7 -3 -13 -17 -13 -31 0 -24 2 -25 45 -19 41 7 45 5 45
-13 0 -24 18 -37 32 -23 6 6 16 8 23 6 23 -9 26 14 7 48 -17 31 -23 33 -73 35
-30 1 -60 -1 -66 -3z"/>
<path d="M4890 6971 c0 -21 28 -37 42 -23 14 14 -2 42 -23 42 -12 0 -19 -7
-19 -19z"/>
<path d="M4783 6965 c-8 -22 16 -36 40 -24 23 13 17 33 -11 37 -14 2 -25 -3
-29 -13z"/>
<path d="M6315 6962 c-3 -4 -24 -5 -45 -3 -35 2 -40 0 -40 -18 0 -20 5 -21 71
-18 39 1 73 -1 75 -5 8 -13 49 -9 70 7 18 14 18 15 1 29 -18 14 -120 20 -132
8z"/>
</g>
</svg>
