<?xml version="1.0" standalone="no"?>
<!DOCTYPE svg PUBLIC "-//W3C//DTD SVG 20010904//EN"
 "http://www.w3.org/TR/2001/REC-SVG-20010904/DTD/svg10.dtd">
<svg version="1.0" xmlns="http://www.w3.org/2000/svg"
 width="550pt" height="310pt"
 preserveAspectRatio="xMidYMid meet">

<g transform="translate(0.000000,1360.000000) scale(0.100000,-0.100000)"
fill="#C1BAB2" stroke="none">
<path d="M3820 13588 c0 -17 75 -111 126 -157 50 -47 91 -54 124 -21 24 24 26
67 5 138 -12 39 -21 52 -34 52 -18 0 -18 -3 -4 -56 19 -75 15 -108 -16 -112
-18 -3 -42 15 -109 82 -47 47 -87 86 -89 86 -2 0 -3 -5 -3 -12z"/>
<path d="M4972 13393 c-11 -21 -34 -184 -27 -191 2 -2 11 -2 18 1 10 4 17 32
22 93 5 64 12 92 24 101 14 11 14 12 -6 13 -12 0 -26 -8 -31 -17z"/>
<path d="M5510 13388 c-1 -2 -7 -36 -14 -76 -11 -64 -7 -96 11 -79 7 8 16 157
9 157 -3 0 -6 -1 -6 -2z"/>
<path d="M1425 13333 c4 -10 18 -69 31 -132 24 -119 28 -131 44 -115 6 6 4 25
-5 51 -8 23 -17 62 -21 85 -7 57 -33 128 -46 128 -6 0 -7 -7 -3 -17z"/>
<path d="M4290 13254 c0 -4 19 -34 43 -68 24 -33 46 -69 50 -78 7 -20 22 -23
32 -8 9 14 -14 52 -68 109 -46 49 -57 58 -57 45z"/>
<path d="M2958 13173 c-25 -30 -38 -90 -23 -103 10 -8 16 -7 24 7 8 14 10 5
11 -40 0 -69 18 -116 54 -144 77 -61 125 59 76 188 -35 94 -103 137 -142 92z
m77 -57 c45 -59 59 -196 21 -196 -30 0 -74 163 -48 179 7 4 8 12 1 21 -8 13
-12 12 -24 -4 -17 -23 -20 -14 -5 15 15 27 25 24 55 -15z"/>
<path d="M3500 13050 c-20 -37 11 -143 37 -127 7 5 6 21 -4 49 -8 24 -12 55
-9 70 6 32 -8 37 -24 8z"/>
<path d="M4263 13023 c-7 -3 -13 -13 -13 -24 0 -22 48 -99 62 -99 17 0 20 31
6 48 -33 38 -32 45 3 37 30 -7 32 -6 21 8 -16 18 -62 36 -79 30z"/>
<path d="M6311 12920 c-1 -23 7 -59 40 -182 6 -24 16 -38 25 -38 19 0 15 23
-20 115 -13 33 -28 76 -34 95 -9 30 -10 32 -11 10z"/>
<path d="M5720 12915 c0 -27 42 -130 67 -162 23 -32 53 -44 53 -22 0 6 -11 25
-24 42 -13 18 -38 60 -55 95 -32 63 -41 74 -41 47z"/>
<path d="M2572 12893 c-1 -35 31 -123 45 -123 16 0 10 30 -13 67 -8 12 -14 34
-14 48 0 28 -16 35 -18 8z"/>
<path d="M4831 12788 c-13 -37 -14 -68 -3 -68 11 0 31 89 22 95 -5 3 -13 -9
-19 -27z"/>
<path d="M5132 12737 c-10 -11 -9 -17 1 -26 8 -6 17 -8 20 -5 9 9 28 -71 37
-160 11 -105 -4 -238 -24 -215 -2 2 -16 49 -32 103 -28 94 -54 136 -54 84 1
-50 49 -222 65 -235 21 -15 48 -3 70 31 35 53 24 318 -16 402 -16 32 -49 43
-67 21z"/>
<path d="M3790 12719 c-309 -24 -551 -81 -866 -205 -63 -24 -116 -44 -119 -44
-15 0 -165 -74 -165 -81 0 -5 7 -6 14 -3 13 5 13 2 3 -19 -6 -14 -17 -23 -23
-20 -7 2 -15 0 -19 -6 -3 -6 0 -14 8 -17 14 -5 30 -41 32 -74 0 -8 6 -14 12
-13 13 3 63 -88 63 -115 0 -26 -59 -155 -103 -224 -37 -57 -75 -150 -84 -205
-6 -36 32 -103 172 -308 131 -191 179 -237 330 -321 241 -134 438 -162 736
-104 242 47 318 76 515 200 113 71 213 153 390 321 68 65 135 126 149 135 14
9 25 22 25 30 0 19 -20 28 -33 15 -6 -6 -14 -11 -18 -11 -12 0 61 104 76 110
16 6 76 83 97 125 28 54 59 175 56 217 -3 41 -4 42 -103 102 -55 34 -131 74
-168 90 -52 22 -67 33 -63 45 3 9 14 41 25 71 24 64 26 101 8 150 l-12 35 -51
-6 c-63 -8 -98 -25 -90 -46 32 -83 -354 -248 -695 -297 -95 -14 -401 -32 -339
-20 14 2 61 12 105 20 143 27 410 95 425 108 8 7 36 19 63 26 26 7 47 18 47
26 0 7 13 15 30 19 43 9 80 42 80 71 0 14 -6 27 -13 30 -7 2 -94 -20 -193 -50
-295 -89 -368 -99 -824 -110 l-215 -6 165 56 c196 67 504 134 613 134 81 0
123 18 99 42 -10 10 -111 15 -159 7 -5 -1 -30 0 -58 1 l-50 3 50 7 c72 12 488
11 634 0 129 -10 156 -5 144 27 -3 8 -24 24 -47 34 l-41 19 65 0 c48 0 74 -5
98 -20 41 -25 52 -25 52 0 0 12 -13 28 -32 40 -31 19 -50 20 -363 19 -181 -1
-377 -5 -435 -10z m-155 -126 c-11 -2 -60 -13 -108 -25 -48 -11 -90 -18 -93
-15 -8 7 147 45 186 45 19 0 26 -2 15 -5z m-528 -99 c-3 -3 -12 -4 -19 -1 -8
3 -5 6 6 6 11 1 17 -2 13 -5z m1563 -19 c-5 -14 -16 -38 -25 -55 -9 -17 -15
-55 -15 -94 0 -65 1 -66 38 -93 49 -35 164 -89 219 -103 42 -10 42 -11 23 -30
-10 -10 -22 -39 -25 -64 -4 -26 -11 -48 -15 -51 -5 -3 -20 -40 -35 -83 -14
-42 -43 -102 -65 -132 -21 -30 -65 -93 -97 -140 -83 -121 -176 -215 -351 -355
-215 -173 -282 -204 -542 -251 -201 -36 -223 -34 -450 38 -150 48 -245 98
-363 193 -115 92 -187 171 -281 310 -73 106 -75 127 -18 223 53 88 142 292
142 324 0 13 -18 50 -40 81 -22 32 -36 57 -32 57 5 0 37 -17 73 -39 79 -47
103 -55 259 -82 168 -29 459 -31 685 -6 301 34 348 44 483 98 162 64 244 113
345 205 44 41 84 74 88 74 5 0 4 -11 -1 -25z m-1665 -14 c-101 -40 -175 -80
-182 -97 -8 -20 25 -54 53 -54 33 0 54 -10 54 -27 0 -9 -7 -12 -17 -9 -10 3
-38 10 -63 16 -25 6 -54 15 -65 19 -11 5 -35 14 -52 21 -35 13 -44 30 -17 30
10 0 14 6 10 15 -7 19 3 19 18 1 9 -13 25 -8 101 30 92 45 188 82 215 83 8 0
-16 -13 -55 -28z m60 -51 c-27 -10 -57 -18 -65 -18 -8 0 8 8 35 18 28 10 57
18 65 18 8 0 -7 -8 -35 -18z m1194 -124 c-2 -2 -38 -18 -79 -34 -88 -35 -140
-44 -441 -77 -184 -20 -255 -24 -380 -19 -166 6 -405 38 -454 60 l-30 14 28
-5 c178 -35 243 -39 527 -40 336 0 476 14 689 69 137 36 146 38 140 32z
m-1304 -1081 c78 -61 86 -71 50 -52 -16 8 -57 41 -90 72 -63 61 -58 58 40 -20z
m200 -133 c-3 -3 -11 0 -18 7 -9 10 -8 11 6 5 10 -3 15 -9 12 -12z m95 -32 c8
-5 11 -10 5 -10 -5 0 -17 5 -25 10 -8 5 -10 10 -5 10 6 0 17 -5 25 -10z"/>
<path d="M4520 12255 c0 -10 43 -82 63 -102 23 -25 47 -30 47 -10 0 7 -22 36
-48 65 -43 47 -62 61 -62 47z"/>
<path d="M4370 12200 c0 -11 12 -26 65 -84 25 -27 41 -36 65 -36 42 0 38 30
-6 42 -20 5 -41 22 -58 48 -24 37 -66 56 -66 30z"/>
<path d="M4247 12143 c-17 -16 -4 -48 33 -85 34 -35 42 -39 56 -27 14 11 11
17 -25 47 -23 18 -41 42 -41 53 0 19 -11 25 -23 12z"/>
<path d="M2841 12009 c-40 -79 -43 -99 -17 -99 16 0 32 35 42 87 3 21 12 48
20 60 8 12 10 24 5 28 -5 3 -28 -31 -50 -76z"/>
<path d="M3484 12057 c-3 -8 -4 -47 -2 -88 2 -58 6 -74 18 -74 15 0 16 18 8
132 -3 42 -14 56 -24 30z"/>
<path d="M2958 12043 c-28 -32 -47 -79 -38 -93 12 -20 37 3 45 41 4 16 11 31
16 34 11 8 12 35 1 35 -5 0 -16 -8 -24 -17z"/>
<path d="M4100 12052 c0 -23 40 -92 55 -92 27 0 23 16 -16 60 -21 25 -39 39
-39 32z"/>
<path d="M3355 12008 c-7 -29 11 -108 25 -108 18 0 20 19 8 67 -15 60 -25 73
-33 41z"/>
<path d="M3770 11991 c0 -28 7 -48 21 -62 31 -31 48 -9 20 27 -11 15 -21 35
-21 45 0 10 -4 21 -10 24 -6 4 -10 -10 -10 -34z"/>
<path d="M3946 12021 c-3 -5 3 -11 13 -14 12 -3 29 -26 41 -56 21 -48 41 -63
55 -42 5 10 -26 72 -53 104 -16 18 -47 23 -56 8z"/>
<path d="M3092 12008 c-18 -23 -42 -90 -42 -120 0 -23 4 -29 18 -26 13 2 18
17 23 63 3 33 9 68 13 78 9 20 3 23 -12 5z"/>
<path d="M3245 11958 c-12 -101 -11 -113 5 -113 17 0 30 87 22 143 -7 50 -18
38 -27 -30z"/>
<path d="M3621 11964 c8 -58 28 -92 48 -80 8 5 8 13 0 28 -6 11 -16 39 -23 61
-18 63 -34 58 -25 -9z"/>
<path d="M1067 12683 c-13 -12 -7 -22 20 -35 18 -8 33 -29 45 -58 18 -48 24
-150 9 -150 -17 0 -53 113 -47 148 6 37 -3 41 -29 12 -16 -18 -17 -26 -6 -73
15 -69 51 -131 78 -135 68 -10 73 178 7 266 -23 30 -60 42 -77 25z"/>
<path d="M2186 12668 c-9 -12 -16 -40 -16 -61 0 -31 3 -38 17 -35 11 2 20 16
24 33 l6 30 9 -30 c15 -50 10 -176 -9 -212 -10 -18 -24 -33 -31 -33 -17 0 -56
66 -85 143 -26 71 -26 80 -1 72 24 -8 27 10 4 23 -31 17 -54 3 -54 -34 0 -49
58 -194 91 -226 35 -36 61 -35 91 1 36 42 51 109 46 200 -7 118 -54 184 -92
129z"/>
<path d="M1690 12578 c0 -34 84 -192 103 -196 25 -5 21 10 -28 108 l-45 90 35
0 c19 0 35 5 35 10 0 6 -22 10 -50 10 -45 0 -50 -2 -50 -22z"/>
<path d="M5840 12363 c-51 -18 -144 -152 -159 -227 -5 -23 -12 -49 -16 -58
-11 -27 14 -22 41 8 24 25 33 51 14 39 -29 -18 41 114 82 154 63 63 102 61
137 -7 48 -94 52 -251 16 -539 -53 -423 -115 -633 -186 -633 -62 0 -115 293
-129 719 -10 276 -9 286 10 323 26 50 25 56 -4 29 -55 -52 -57 -68 -47 -323
12 -270 23 -382 57 -566 41 -221 85 -275 167 -202 67 58 108 206 152 542 58
445 52 624 -27 713 -30 35 -65 44 -108 28z"/>
<path d="M6508 12203 c-9 -38 -19 -99 -22 -138 -3 -38 -8 -87 -12 -107 -5 -30
-4 -38 9 -38 24 0 37 54 47 190 12 156 12 160 2 160 -5 0 -16 -30 -24 -67z"/>
<path d="M1030 12214 c0 -3 14 -23 32 -45 20 -24 35 -36 41 -30 6 6 -4 23 -26
45 -35 35 -47 42 -47 30z"/>
<path d="M2385 12201 c-8 -26 5 -73 19 -68 6 3 9 11 7 18 -2 8 -4 26 -5 41 -1
32 -12 37 -21 9z"/>
<path d="M1450 12160 c-28 -28 -48 -111 -55 -230 -3 -58 -8 -135 -11 -172 -8
-100 12 -84 25 20 27 213 33 250 47 295 26 79 71 82 147 9 82 -79 136 -217
188 -480 17 -86 48 -245 70 -353 73 -363 107 -659 76 -659 -21 0 -86 51 -144
112 -126 135 -218 320 -376 758 -115 321 -137 384 -137 402 0 9 -5 20 -11 24
-9 5 -11 -10 -7 -57 4 -49 31 -133 116 -360 132 -352 196 -499 283 -644 99
-167 249 -308 297 -279 31 20 43 56 37 114 -14 124 -146 867 -185 1035 -46
197 -114 362 -173 417 -74 70 -146 89 -187 48z"/>
<path d="M2007 11883 c-11 -10 -8 -43 3 -43 6 0 10 5 10 11 0 19 26 -8 66 -67
29 -44 38 -53 50 -43 17 14 3 44 -51 107 -34 39 -62 52 -78 35z"/>
<path d="M661 11858 c18 -34 140 -158 156 -158 31 0 8 34 -61 91 -41 33 -77
67 -80 75 -3 8 -10 14 -16 14 -7 0 -7 -7 1 -22z"/>
<path d="M6571 11592 c-32 -31 -60 -127 -43 -144 14 -14 32 -1 32 23 0 30 27
89 45 95 28 11 64 -6 80 -37 12 -22 16 -59 16 -145 -1 -140 -15 -235 -44 -294
-43 -87 -50 -75 -113 203 -9 43 -21 80 -26 83 -21 14 6 -208 38 -309 31 -95
97 -97 139 -5 34 76 48 164 49 318 1 152 -7 179 -63 217 -45 30 -77 29 -110
-5z"/>
<path d="M7061 11563 c4 -32 13 -71 19 -88 7 -16 13 -43 14 -60 1 -20 7 -31
19 -33 25 -5 23 68 -3 116 -11 20 -25 56 -30 80 -15 61 -28 52 -19 -15z"/>
<path d="M4737 11314 c-2 -3 15 -34 39 -70 24 -36 47 -76 50 -90 6 -23 23 -31
37 -18 8 9 -18 70 -49 116 -26 38 -68 71 -77 62z"/>
<path d="M2226 11268 c18 -127 58 -228 80 -205 6 5 -31 173 -48 220 -6 15 -17
27 -24 27 -11 0 -13 -10 -8 -42z"/>
<path d="M1131 11184 c-30 -38 -25 -114 6 -114 12 0 14 8 10 38 -4 24 -1 47 8
66 18 33 18 36 6 36 -5 0 -19 -12 -30 -26z"/>
<path d="M3040 10851 c0 -19 37 -54 49 -47 8 6 4 15 -14 32 -28 26 -35 29 -35
15z"/>
<path d="M3840 10780 c-8 -15 -6 -39 11 -103 25 -91 33 -107 50 -90 9 9 5 33
-15 98 -15 47 -24 90 -21 95 3 5 1 11 -4 15 -6 3 -15 -4 -21 -15z"/>
<path d="M6090 10731 c0 -4 9 -16 21 -27 26 -24 89 -146 89 -174 0 -22 28 -28
36 -7 8 22 -23 107 -58 152 -29 39 -88 77 -88 56z"/>
<path d="M956 10623 c-2 -10 17 -81 42 -158 34 -101 52 -141 65 -143 11 -2 17
3 17 15 0 15 -61 205 -86 267 -5 14 -4 17 4 12 7 -4 12 -1 12 8 0 23 -47 21
-54 -1z"/>
<path d="M5365 10547 c-5 -47 -2 -88 14 -162 25 -112 26 -116 46 -109 17 7 14
39 -11 156 -8 37 -14 92 -14 122 0 42 -4 56 -14 56 -10 0 -16 -18 -21 -63z"/>
<path d="M4464 10467 c-3 -8 4 -47 15 -88 19 -69 25 -123 22 -194 l-2 -30 -25
30 c-61 71 -123 177 -130 220 -8 60 -24 57 -24 -3 0 -59 29 -120 103 -217 39
-51 61 -71 80 -73 23 -3 27 2 37 37 6 23 8 64 5 93 -10 82 -37 212 -48 226
-12 16 -26 15 -33 -1z"/>
<path d="M2368 10343 c-7 -26 1 -233 8 -245 12 -20 34 24 34 67 0 94 -13 195
-25 195 -7 0 -15 -8 -17 -17z"/>
<path d="M1565 10341 c-10 -17 -8 -72 5 -156 16 -109 17 -112 34 -94 10 10 11
29 6 74 -5 33 -11 86 -15 118 -8 57 -18 77 -30 58z"/>
<path d="M3028 10224 c-16 -8 -28 -21 -28 -29 0 -17 35 -20 45 -5 4 6 11 8 16
5 12 -8 12 -157 -1 -191 l-11 -27 -30 29 c-49 47 -62 79 -54 140 3 30 4 54 1
54 -13 0 -36 -63 -36 -100 0 -51 19 -88 65 -129 73 -64 115 -16 115 131 0 133
-17 158 -82 122z"/>
<path d="M3540 10125 c0 -30 9 -64 26 -98 15 -29 30 -63 34 -77 7 -29 33 -34
38 -8 2 10 -15 58 -37 106 -23 49 -41 96 -41 105 0 10 -4 17 -10 17 -5 0 -10
-20 -10 -45z"/>
<path d="M7517 8763 c-15 -14 -7 -43 12 -43 20 0 35 25 25 41 -6 11 -28 12
-37 2z"/>
</g>
</svg>
