<?xml version="1.0" standalone="no"?>
<!DOCTYPE svg PUBLIC "-//W3C//DTD SVG 20010904//EN"
 "http://www.w3.org/TR/2001/REC-SVG-20010904/DTD/svg10.dtd">
<svg version="1.0" xmlns="http://www.w3.org/2000/svg"
 width="560pt" height="460pt"
 preserveAspectRatio="xMidYMid meet">

<g transform="translate(0.000000,1360.000000) scale(0.100000,-0.100000)"
fill="#C19A5B" stroke="none">
<path d="M5892 13555 c-41 -25 -90 -58 -110 -73 -20 -16 -71 -53 -112 -82 -41
-29 -106 -78 -145 -108 -38 -31 -72 -58 -75 -60 -3 -2 -8 -42 -11 -88 -5 -77
-10 -94 -56 -182 -86 -166 -91 -244 -18 -330 39 -45 81 -62 153 -62 33 0 42
-4 42 -17 0 -10 -27 -73 -61 -139 -51 -102 -62 -132 -66 -188 -13 -159 75
-266 220 -266 85 0 317 110 539 256 70 46 130 84 133 84 16 0 101 74 256 224
92 89 214 206 272 262 116 112 149 160 172 251 30 115 -11 183 -133 224 -87
29 -157 22 -292 -30 -57 -23 -112 -41 -122 -41 -22 0 -24 38 -7 123 17 85 5
144 -40 188 -21 21 -51 41 -67 45 -16 4 -77 2 -137 -5 -102 -11 -110 -10 -157
10 -28 12 -50 28 -50 35 0 27 -55 13 -128 -31z m188 -60 c38 -14 56 -15 118
-6 123 18 159 15 192 -17 36 -36 46 -89 31 -156 -7 -28 -11 -73 -9 -100 2 -39
8 -53 30 -69 l26 -20 127 47 c161 59 190 63 270 41 89 -24 115 -50 115 -114 0
-105 -66 -205 -225 -340 -38 -33 -137 -126 -218 -206 -82 -80 -153 -145 -159
-145 -6 0 -31 -17 -57 -38 -65 -55 -259 -179 -371 -240 -202 -108 -329 -139
-388 -95 -57 42 -67 68 -67 163 0 89 0 90 56 197 72 138 77 162 47 198 -21 23
-33 28 -86 30 -71 3 -104 20 -129 68 -31 59 -21 114 42 241 64 128 76 185 51
234 -9 17 -16 33 -16 37 0 3 22 5 49 5 82 0 204 75 426 260 64 53 67 54 145
25z m-241 -41 c-17 -21 -206 -158 -246 -178 -58 -29 -35 -8 60 56 50 34 114
79 140 100 52 40 68 48 46 22z"/>
<path d="M6036 13472 c-9 -15 63 -37 77 -23 6 6 8 13 5 16 -11 12 -76 17 -82
7z"/>
<path d="M6000 13421 c0 -10 56 -51 70 -51 26 0 6 29 -30 43 -22 8 -40 12 -40
8z"/>
<path d="M5910 13361 c0 -13 59 -61 76 -61 26 0 15 19 -26 45 -43 27 -50 30
-50 16z"/>
<path d="M5833 13254 c21 -22 40 -33 47 -29 16 10 -37 65 -63 65 -16 0 -13 -6
16 -36z"/>
<path d="M5736 13222 c-9 -14 51 -79 62 -67 7 7 5 17 -6 30 -27 32 -50 47 -56
37z"/>
<path d="M5656 13150 c7 -38 31 -80 45 -80 18 0 20 28 5 47 -8 10 -24 29 -36
43 l-21 25 7 -35z"/>
<path d="M5585 13114 c9 -48 26 -84 40 -84 21 0 25 13 10 39 -8 14 -19 38 -25
54 -14 41 -34 35 -25 -9z"/>
<path d="M5526 13122 c-3 -5 -9 -34 -14 -65 -7 -44 -6 -60 4 -68 17 -14 21 -3
27 74 3 53 -4 80 -17 59z"/>
<path d="M6854 13043 c-46 -62 -321 -346 -403 -416 -82 -71 -142 -115 -236
-174 -33 -21 -100 -65 -148 -99 -48 -35 -109 -70 -136 -79 -27 -8 -97 -45
-157 -81 -60 -35 -119 -67 -131 -70 -13 -4 -23 -10 -23 -16 0 -5 8 -7 18 -4 9
2 33 7 52 11 19 4 73 28 120 54 47 27 108 56 137 66 29 10 83 40 120 66 37 26
111 75 163 109 188 121 265 187 465 397 166 175 215 233 215 257 0 28 -26 17
-56 -21z"/>
<path d="M3520 13415 c-27 -14 -100 -133 -125 -204 -19 -54 -20 -161 -1 -205
18 -43 76 -98 126 -121 35 -16 47 -17 95 -6 44 10 61 20 90 54 45 52 58 103
53 197 -6 96 -24 134 -107 220 -72 75 -93 86 -131 65z m83 -134 c23 -42 25
-53 16 -80 -11 -31 -12 -32 -26 -12 -8 12 -20 52 -27 91 -16 81 -6 82 37 1z"/>
<path d="M4222 13158 c-18 -13 -69 -51 -115 -84 -95 -71 -300 -189 -402 -230
-98 -40 -190 -39 -296 3 -75 30 -182 95 -209 128 -8 9 -40 34 -71 56 -31 21
-74 54 -94 74 -21 19 -39 35 -40 35 -9 0 -11 -64 -4 -117 20 -138 98 -310 178
-391 66 -66 186 -151 268 -190 50 -23 71 -27 153 -27 215 0 380 101 528 323
82 122 136 224 167 315 25 73 26 80 11 103 -20 30 -34 30 -74 2z m8 -116 c-17
-44 -53 -116 -80 -161 -159 -265 -275 -368 -460 -407 -88 -19 -171 -13 -236
15 -68 30 -220 139 -263 187 -56 64 -140 253 -166 371 l-6 32 39 -37 c141
-135 251 -209 362 -246 113 -37 193 -37 286 -1 111 44 338 174 447 256 56 42
103 76 105 74 2 -2 -11 -39 -28 -83z"/>
<path d="M915 13108 c31 -209 82 -448 95 -448 13 0 -1 152 -25 275 -13 66 -27
141 -31 168 -5 38 -10 47 -26 47 -18 0 -19 -5 -13 -42z"/>
<path d="M1366 13038 c-2 -7 -12 -65 -21 -130 -15 -101 -16 -122 -4 -159 14
-41 41 -70 55 -57 3 4 -1 14 -10 23 -20 21 -21 83 -1 195 19 110 19 140 0 140
-9 0 -17 -6 -19 -12z"/>
<path d="M436 12791 c-11 -17 88 -164 130 -194 42 -29 110 -51 119 -37 3 4 -8
10 -23 13 -42 9 -107 71 -158 152 -45 73 -57 85 -68 66z"/>
<path d="M1890 12679 c-66 -67 -118 -124 -116 -127 16 -16 271 209 263 232 -9
27 -35 8 -147 -105z"/>
<path d="M1180 12557 c-92 -27 -173 -72 -254 -140 -78 -64 -82 -70 -123 -185
-32 -89 -35 -107 -36 -222 -2 -120 -1 -125 19 -128 16 -2 26 -19 44 -78 36
-115 159 -277 271 -360 58 -42 151 -74 217 -74 103 0 296 71 360 133 74 70
162 216 195 322 29 95 29 126 -3 252 -32 121 -47 152 -128 263 -94 127 -307
241 -447 239 -22 0 -74 -10 -115 -22z m250 -56 c31 -11 93 -44 140 -73 72 -46
93 -66 150 -144 57 -78 70 -104 94 -191 23 -82 28 -114 24 -169 -8 -113 -84
-269 -182 -373 -67 -72 -263 -139 -373 -128 -65 7 -142 42 -200 92 -100 85
-255 330 -255 401 0 13 -3 24 -7 24 -3 0 -6 39 -5 87 2 154 48 269 140 349 81
70 144 104 239 131 93 26 153 25 235 -6z"/>
<path d="M195 12460 c-6 -10 50 -96 94 -143 33 -37 140 -100 214 -127 71 -26
86 -20 25 11 -138 70 -255 166 -294 242 -15 28 -28 34 -39 17z"/>
<path d="M4445 12328 c-118 -127 -160 -182 -240 -315 l-32 -52 -34 52 c-62 94
-209 185 -334 207 -93 16 -229 14 -310 -5 -135 -31 -273 -124 -348 -235 -17
-25 -31 -47 -33 -48 -1 -2 -33 19 -71 48 -37 28 -90 68 -118 88 -27 20 -79 66
-116 101 -106 99 -117 75 -88 -187 32 -295 107 -531 221 -691 56 -80 89 -107
115 -96 17 8 17 8 1 12 -22 5 -113 152 -161 258 -41 92 -112 321 -94 305 3 -3
43 -86 89 -185 46 -99 97 -205 115 -235 57 -99 193 -209 193 -155 0 8 -13 21
-28 29 -48 25 -119 110 -161 194 -36 72 -39 83 -29 110 10 26 9 34 -7 51 -10
12 -24 21 -31 21 -19 0 -130 247 -122 271 2 5 25 -32 52 -83 66 -125 181 -310
209 -339 13 -13 38 -45 55 -71 37 -54 50 -64 64 -50 7 7 -11 35 -54 87 -90
109 -122 163 -123 205 0 28 -4 35 -20 35 -14 0 -31 19 -57 65 -21 36 -38 68
-38 72 0 4 9 10 20 13 13 4 20 15 20 30 0 27 -45 85 -66 85 -20 0 -17 -24 6
-45 21 -19 26 -35 11 -35 -12 0 -99 150 -111 191 -5 17 -6 38 -2 45 5 10 23
-8 56 -59 27 -39 92 -125 144 -190 52 -65 96 -128 97 -140 1 -12 3 -30 4 -41
1 -14 7 -17 25 -14 20 4 30 -6 72 -74 27 -43 63 -101 80 -128 25 -37 29 -50
18 -54 -20 -8 -17 -24 4 -22 13 1 18 -8 20 -41 2 -24 0 -43 -3 -43 -18 0 -65
33 -65 45 0 8 -4 15 -10 15 -5 0 -10 -9 -10 -19 0 -26 216 -195 237 -186 14 5
13 9 -6 29 -13 13 -44 38 -69 56 -45 30 -47 34 -44 71 2 21 7 39 11 39 3 0 19
-24 34 -54 35 -67 73 -104 88 -89 9 9 2 23 -25 55 -83 98 -176 234 -172 251 2
9 0 17 -4 17 -5 0 -46 55 -92 122 -46 68 -138 192 -205 276 -68 84 -126 159
-130 165 -13 22 71 -50 123 -105 91 -95 125 -141 112 -149 -8 -5 -4 -11 12
-17 23 -9 95 -88 193 -212 32 -41 37 -52 28 -69 -7 -13 -8 -28 -1 -45 12 -33
28 -33 36 -2 4 16 11 23 20 19 22 -8 17 21 -7 43 -26 23 -77 95 -105 149 -12
22 -26 39 -32 38 -14 -3 -62 58 -62 78 0 8 -21 33 -47 56 -27 22 -45 44 -41
49 13 12 208 -197 303 -325 69 -92 95 -121 113 -121 15 0 22 6 22 19 0 11 -4
21 -9 23 -11 4 -101 125 -101 136 0 13 151 61 255 81 55 11 156 31 225 46 231
50 214 51 180 -15 -50 -99 -66 -333 -34 -510 18 -100 27 -121 44 -104 8 8 6
34 -4 85 -35 175 -37 234 -16 340 22 107 45 174 86 248 15 25 42 75 61 111 53
96 112 188 161 249 62 77 158 181 168 181 4 0 -10 -19 -32 -42 -109 -114 -215
-272 -289 -431 -48 -105 -95 -245 -94 -280 1 -12 -2 -33 -5 -47 -13 -54 -26
-147 -26 -187 0 -32 4 -43 15 -43 11 0 15 11 15 38 0 45 18 161 28 176 4 6 7
23 8 38 4 63 15 100 30 94 16 -6 84 57 84 79 0 27 -29 16 -52 -20 -26 -39 -43
-46 -32 -12 13 43 92 213 124 267 48 81 122 191 127 187 2 -3 -14 -56 -35
-118 -21 -63 -47 -144 -57 -181 -15 -56 -20 -66 -32 -56 -10 8 -17 8 -25 0
-13 -13 0 -35 18 -28 17 7 17 11 -2 -71 -21 -93 -43 -155 -44 -125 0 17 -5 23
-17 20 -14 -3 -24 -31 -46 -133 -15 -72 -44 -204 -63 -294 -36 -164 -36 -192
0 -178 11 4 16 19 16 47 0 60 39 232 58 253 11 13 13 20 5 25 -15 10 22 178
44 200 9 10 19 16 22 14 3 -2 10 13 15 32 7 26 15 36 29 36 14 0 17 -4 12 -17
-14 -36 -54 -207 -50 -213 3 -4 -4 -34 -14 -66 -26 -80 -61 -210 -61 -229 0
-31 29 -14 39 23 13 46 127 193 145 186 11 -4 17 8 42 86 3 8 -3 5 -12 -7 -9
-13 -23 -23 -30 -23 -8 0 -35 -27 -61 -60 -25 -33 -47 -59 -49 -58 -1 2 5 35
14 73 14 59 20 70 35 67 15 -3 18 2 15 25 -2 19 1 28 11 28 9 0 19 20 26 55
19 85 33 146 90 395 30 127 57 257 61 290 l8 60 10 -40 c6 -22 10 -146 10
-280 -1 -245 -15 -382 -50 -480 -8 -22 -16 -49 -18 -60 -2 -11 -9 -32 -16 -48
-17 -35 -1 -58 25 -37 23 19 41 68 76 195 76 283 83 323 83 460 -1 133 -7 173
-51 330 -45 160 -68 171 -158 73z m50 -164 c-9 -55 -38 -202 -66 -329 -68
-317 -80 -368 -90 -385 -17 -30 -10 19 12 87 16 47 19 71 12 82 -7 10 -7 26
-1 44 12 34 3 61 -17 53 -8 -3 -15 0 -15 6 0 26 53 184 67 200 8 9 13 23 11
30 -3 15 94 319 100 313 2 -1 -4 -47 -13 -101z m113 -249 c0 -55 -4 -113 -8
-130 -4 -17 -8 45 -8 145 0 119 3 161 9 130 4 -25 7 -90 7 -145z m-21 -187
c-3 -8 -6 -5 -6 6 -1 11 2 17 5 13 3 -3 4 -12 1 -19z"/>
<path d="M6836 12200 c-65 -10 -124 -16 -131 -14 -6 3 -45 -14 -86 -37 -56
-32 -115 -83 -248 -213 -423 -416 -413 -404 -414 -493 0 -47 8 -76 42 -153 83
-189 168 -303 278 -376 31 -20 108 -58 172 -83 l116 -45 155 1 c409 1 435 2
503 23 71 22 155 80 173 121 29 64 44 130 44 199 0 41 11 131 24 200 23 119
49 375 49 487 0 90 -72 172 -192 218 -39 14 -104 54 -158 94 -87 66 -142 92
-188 90 -11 -1 -73 -9 -139 -19z m288 -169 c61 -30 122 -81 96 -81 -18 0 -148
65 -180 90 l-25 20 24 0 c13 0 51 -13 85 -29z m147 -178 c13 -16 12 -17 -3 -4
-17 13 -22 21 -14 21 2 0 10 -8 17 -17z m102 -36 c7 -12 22 -53 32 -91 16 -61
16 -76 5 -140 l-14 -71 -7 45 c-5 25 -19 100 -32 167 -18 90 -21 120 -11 116
7 -2 19 -14 27 -26z"/>
<path d="M2365 12094 c-38 -7 -114 -16 -168 -20 -54 -4 -100 -10 -102 -14 -2
-3 18 -12 45 -19 83 -21 331 17 338 52 4 20 -11 20 -113 1z"/>
<path d="M4317 11943 c-4 -3 -7 -17 -7 -30 0 -33 24 -24 28 10 3 26 -7 35 -21
20z"/>
<path d="M4494 11936 c-10 -26 1 -51 21 -51 23 0 32 30 15 50 -16 19 -29 19
-36 1z"/>
<path d="M4462 11772 c-13 -38 0 -61 22 -43 20 17 21 45 2 60 -11 9 -16 6 -24
-17z"/>
<path d="M2990 11750 c-11 -7 -12 -14 -2 -35 14 -30 32 -25 32 10 0 28 -11 37
-30 25z"/>
<path d="M3835 11705 c-117 -52 -118 -54 -107 -161 6 -49 8 -92 6 -96 -3 -5
-16 -8 -29 -8 -20 0 -24 6 -29 53 -17 135 -26 157 -65 157 -28 0 -106 -44
-109 -62 -3 -15 -1 -16 25 -3 15 7 42 15 58 17 27 3 30 0 33 -28 3 -28 -2 -34
-45 -59 -53 -32 -45 -45 12 -21 21 9 39 16 40 16 1 0 5 -22 9 -50 8 -58 26
-72 79 -63 63 10 71 28 57 129 -9 70 -9 90 2 100 7 7 49 28 93 46 48 20 80 40
80 48 0 25 -27 21 -110 -15z"/>
<path d="M3190 11621 c0 -13 26 -32 33 -24 14 13 6 33 -13 33 -11 0 -20 -4
-20 -9z"/>
<path d="M4497 11624 c-13 -13 -7 -24 14 -24 11 0 19 5 17 12 -5 14 -22 21
-31 12z"/>
<path d="M4451 11601 c-7 -12 -7 -22 -2 -26 5 -3 13 4 16 16 9 28 -1 36 -14
10z"/>
<path d="M470 11575 c-112 -40 -240 -105 -240 -122 0 -21 23 -15 112 26 197
92 241 111 254 111 8 0 14 5 14 10 0 17 -41 9 -140 -25z"/>
<path d="M3841 11574 c-39 -18 -35 -29 8 -19 32 7 65 36 40 34 -8 0 -29 -7
-48 -15z"/>
<path d="M3070 11537 c0 -23 34 -47 50 -37 12 7 11 12 -4 29 -22 24 -46 28
-46 8z"/>
<path d="M1965 11498 c117 -103 179 -140 253 -153 39 -6 43 -5 40 10 -2 12
-23 24 -57 35 -29 10 -90 43 -135 73 -44 30 -91 60 -103 66 -45 23 -44 10 2
-31z"/>
<path d="M3165 11511 c-3 -5 0 -13 6 -17 8 -4 7 -9 -2 -15 -12 -8 -11 -11 1
-19 21 -14 44 -8 48 13 6 32 -37 63 -53 38z"/>
<path d="M4455 11479 c-4 -6 -4 -13 -1 -16 3 -3 1 -14 -5 -25 -16 -30 -4 -32
26 -4 16 15 25 32 21 41 -6 17 -32 20 -41 4z"/>
<path d="M3480 11390 c0 -5 4 -10 9 -10 22 0 81 -242 90 -370 5 -75 9 -95 21
-95 52 0 -3 332 -73 443 -26 40 -47 54 -47 32z"/>
<path d="M3050 11375 c0 -8 5 -15 10 -15 6 0 15 -12 20 -26 7 -16 16 -24 25
-21 9 4 19 -5 27 -24 17 -39 31 -37 23 4 -11 51 -32 84 -57 91 -36 9 -48 7
-48 -9z"/>
<path d="M3453 11344 c-6 -16 15 -64 29 -64 11 0 10 37 -2 45 -5 3 -7 12 -3
20 3 8 0 15 -6 15 -7 0 -14 -7 -18 -16z"/>
<path d="M3695 11316 c-18 -13 -18 -15 -1 -40 9 -15 22 -26 29 -23 16 5 26 49
14 65 -12 15 -19 15 -42 -2z"/>
<path d="M4360 11254 c0 -8 5 -12 10 -9 6 3 10 10 10 16 0 5 -4 9 -10 9 -5 0
-10 -7 -10 -16z"/>
<path d="M4390 11220 c-21 -51 -198 -234 -236 -244 -46 -13 -44 -30 3 -21 46
8 59 17 151 107 74 71 132 149 132 175 0 26 -38 13 -50 -17z"/>
<path d="M3260 11200 c0 -11 5 -20 12 -20 9 0 9 -3 0 -12 -8 -8 -9 -15 -1 -25
31 -36 62 11 35 52 -20 30 -46 33 -46 5z"/>
<path d="M1493 11174 c-3 -9 27 -86 73 -182 82 -175 91 -192 105 -192 21 0 6
57 -41 156 -27 58 -50 110 -50 114 0 5 -16 29 -35 55 -20 25 -33 50 -30 55 4
6 1 10 -5 10 -6 0 -13 -7 -17 -16z"/>
<path d="M3523 11164 c-8 -20 9 -68 22 -65 6 1 8 10 7 19 -2 9 -5 27 -5 40 -2
26 -15 29 -24 6z"/>
<path d="M943 11138 c-12 -13 -37 -61 -56 -108 -19 -47 -47 -113 -62 -147 -26
-59 -28 -93 -5 -93 6 0 14 10 19 23 5 12 23 53 40 91 18 38 41 99 52 135 11
36 27 78 34 94 17 33 6 35 -22 5z"/>
<path d="M3190 11142 c0 -23 186 -169 267 -211 23 -11 56 -21 73 -21 45 0 38
26 -11 38 -22 6 -86 41 -142 78 -56 37 -121 80 -144 96 -24 15 -43 24 -43 20z"/>
<path d="M3080 11125 c0 -3 5 -11 10 -18 36 -42 106 -169 127 -230 34 -97 42
-256 19 -385 -9 -50 -16 -120 -16 -155 0 -34 -14 -123 -30 -197 -39 -173 -49
-290 -27 -309 9 -7 25 -10 35 -7 11 4 109 97 218 208 292 296 320 324 387 380
53 44 65 49 95 44 46 -7 205 -86 268 -133 93 -69 328 -256 402 -320 40 -35 82
-63 92 -63 29 0 58 46 65 105 13 102 -21 191 -166 430 -95 158 -114 222 -106
361 4 66 12 110 31 155 25 63 26 79 2 79 -20 0 -65 -99 -76 -166 -27 -165 -2
-272 106 -450 41 -68 94 -163 117 -211 36 -76 42 -97 42 -153 0 -36 -4 -74 -8
-84 -7 -18 -10 -17 -40 11 -18 17 -122 102 -232 188 -207 164 -316 238 -401
269 -27 11 -50 20 -52 21 -1 1 6 22 17 46 27 64 35 138 15 146 -20 8 -25 1
-30 -43 -2 -22 -9 -60 -15 -86 -16 -69 -49 -61 -49 12 0 39 -9 60 -27 60 -15
0 -14 -37 4 -107 4 -18 1 -23 -14 -23 -22 0 -93 104 -93 136 0 23 -23 48 -33
37 -13 -13 -7 -69 12 -98 10 -16 31 -43 47 -60 l29 -30 -302 -305 c-166 -167
-305 -301 -309 -297 -4 4 9 91 29 194 20 104 38 220 40 258 3 39 13 117 22
175 26 160 5 345 -52 454 -26 50 -123 166 -138 166 -8 0 -15 -2 -15 -5z"/>
<path d="M3392 11069 c2 -6 8 -10 13 -10 5 0 11 4 13 10 2 6 -4 11 -13 11 -9
0 -15 -5 -13 -11z"/>
<path d="M3489 11055 c-8 -7 3 -75 12 -75 15 0 21 20 14 50 -6 28 -15 37 -26
25z"/>
<path d="M5745 10876 c-33 -8 -81 -16 -107 -20 -59 -9 -98 -38 -98 -75 0 -48
32 -66 114 -66 64 0 77 3 123 33 29 19 59 35 68 36 39 6 44 55 9 90 -18 19
-29 19 -109 2z m-28 -82 c-11 -11 -78 -22 -100 -16 -20 6 -20 7 8 13 39 9 100
11 92 3z"/>
<path d="M5500 10643 c-6 -21 -15 -67 -20 -103 -56 -367 -56 -369 -138 -565
-35 -84 -84 -168 -123 -213 -50 -57 -63 -91 -62 -168 1 -79 14 -114 43 -114
22 0 26 20 9 37 -7 7 -10 39 -8 85 4 71 6 77 55 144 57 77 114 175 114 194 0
7 11 36 24 65 61 128 99 279 112 445 2 36 8 102 12 148 8 87 0 107 -18 45z"/>
<path d="M5787 10613 c-4 -3 -7 -15 -7 -25 0 -28 35 -19 36 10 1 21 -15 30
-29 15z"/>
<path d="M5685 10499 c-18 -28 33 -113 61 -102 19 7 18 21 -8 71 -23 41 -41
52 -53 31z"/>
<path d="M5794 10247 c-31 -31 -53 -61 -49 -66 13 -22 42 -10 90 39 46 47 48
51 32 67 -15 16 -20 13 -73 -40z"/>
<path d="M1628 10083 c-37 -42 -57 -118 -104 -393 -25 -141 -53 -230 -73 -230
-28 0 -111 144 -197 340 -43 99 -59 120 -90 120 -47 0 -54 -56 -29 -250 8 -63
21 -144 29 -180 20 -87 46 -268 46 -319 0 -72 4 -75 -293 201 -76 70 -149 131
-163 134 -42 11 -64 -19 -64 -85 0 -49 6 -67 46 -136 25 -44 66 -125 90 -179
41 -95 76 -152 241 -397 39 -59 81 -125 91 -146 31 -59 169 -235 213 -270 62
-49 117 -71 201 -81 131 -17 250 18 365 105 62 47 142 169 246 373 137 271
319 617 372 710 48 84 75 156 75 201 0 30 -37 79 -60 79 -36 0 -95 -44 -217
-162 -76 -74 -152 -144 -170 -156 -31 -22 -63 -29 -63 -14 0 23 31 226 36 233
3 5 18 72 34 150 36 169 39 238 10 264 -57 51 -135 -48 -247 -314 -50 -120
-101 -207 -115 -193 -18 18 -90 345 -106 479 -5 46 -17 94 -26 108 -19 29 -56
33 -78 8z m58 -164 c8 -63 23 -148 34 -189 11 -41 29 -117 40 -169 30 -140 70
-173 128 -106 42 47 74 105 117 210 51 124 98 214 133 255 l30 35 -5 -55 c-4
-50 -34 -203 -69 -355 -8 -33 -17 -98 -20 -145 -8 -97 3 -120 55 -120 40 0 92
39 242 182 144 137 168 157 185 158 38 1 15 -87 -50 -195 -53 -86 -245 -450
-382 -722 -115 -229 -163 -296 -264 -365 -83 -56 -150 -73 -266 -65 -64 4 -93
11 -132 32 -77 42 -111 77 -105 108 4 20 0 29 -13 34 -10 4 -19 2 -22 -5 -2
-7 -7 -12 -12 -12 -9 0 -89 119 -115 170 -9 19 -51 87 -93 150 -41 63 -101
153 -131 200 -31 47 -74 126 -96 175 -22 50 -61 126 -87 169 -38 63 -48 88
-48 123 0 33 3 42 13 37 6 -4 98 -88 204 -186 155 -145 199 -180 227 -185 40
-6 63 7 77 46 11 27 -6 159 -46 371 -26 137 -49 322 -43 341 2 7 21 -27 42
-76 67 -156 127 -266 169 -312 35 -38 45 -44 76 -41 30 3 39 10 58 43 12 22
27 63 33 90 5 28 26 136 46 240 35 180 58 265 69 253 3 -3 12 -57 21 -119z"/>
<path d="M1554 9232 c-48 -23 -108 -90 -137 -152 -15 -34 -20 -67 -21 -136 -1
-85 1 -95 34 -159 48 -95 101 -135 176 -135 70 0 100 16 148 80 33 44 41 62
44 109 3 46 0 62 -20 91 -37 55 -83 80 -143 80 -58 0 -99 -27 -110 -73 -14
-53 48 -127 104 -127 12 0 34 12 48 26 21 22 25 32 20 66 l-6 41 27 -26 c35
-36 34 -94 -4 -149 -48 -69 -106 -85 -165 -45 -44 30 -74 76 -95 145 -38 131
40 291 158 323 56 15 163 -2 234 -36 145 -71 164 -256 46 -443 -117 -186 -201
-232 -338 -185 -37 12 -68 35 -125 92 -89 88 -112 129 -130 229 -7 39 -16 72
-20 72 -12 0 -19 -63 -13 -114 9 -72 45 -136 119 -214 102 -109 221 -153 331
-122 59 17 138 89 200 182 78 118 96 169 102 274 4 86 3 98 -22 148 -54 111
-155 167 -311 173 -72 3 -98 0 -131 -15z m43 -307 c-7 -13 -14 -20 -15 -14 -2
5 2 16 8 24 18 21 20 18 7 -10z"/>
<path d="M6233 9943 c-73 -5 -88 -24 -54 -72 12 -16 21 -32 21 -37 0 -4 -14
-29 -31 -55 -47 -74 -20 -120 46 -79 18 11 37 20 43 20 6 0 22 -26 37 -57 32
-70 51 -93 80 -93 27 0 44 36 54 112 6 51 7 53 41 58 27 4 35 10 35 25 0 17
-8 20 -51 23 -50 3 -52 2 -63 -29 -6 -18 -11 -46 -11 -63 0 -60 -15 -59 -45 5
-31 65 -54 84 -86 74 -19 -6 -19 -6 -2 29 16 35 16 37 -5 66 l-22 30 27 6 c55
12 63 16 63 30 0 8 -3 13 -7 12 -5 -1 -36 -3 -70 -5z"/>
<path d="M5640 9880 c0 -12 7 -34 15 -49 58 -114 -6 -275 -133 -329 -85 -36
-149 -38 -240 -5 -39 14 33 -47 74 -63 35 -13 51 -14 94 -5 173 37 272 148
274 306 0 60 -4 78 -27 118 -29 49 -57 62 -57 27z"/>
<path d="M5536 9852 c-3 -5 2 -32 11 -61 27 -95 -2 -158 -87 -186 -52 -17 -79
-14 -105 12 -22 21 -31 8 -15 -21 42 -80 201 -42 250 60 25 50 23 103 -4 169
-14 33 -38 46 -50 27z"/>
<path d="M5466 9791 c-4 -5 -1 -21 5 -35 10 -22 9 -29 -6 -46 -10 -11 -29 -20
-42 -20 -32 0 -29 -18 4 -26 57 -15 108 46 87 103 -10 28 -37 42 -48 24z"/>
<path d="M5877 9783 c-13 -12 -7 -71 9 -83 25 -21 68 -1 72 33 2 16 -2 35 -9
43 -12 14 -60 19 -72 7z m43 -48 c0 -8 -7 -15 -15 -15 -8 0 -15 7 -15 15 0 8
7 15 15 15 8 0 15 -7 15 -15z"/>
<path d="M5722 9492 c-7 -5 -22 -42 -33 -83 -25 -88 -38 -105 -87 -112 -82
-13 -79 -12 -73 -46 0 -5 20 -16 42 -25 39 -16 41 -19 35 -49 -19 -92 -28
-167 -23 -181 13 -34 58 -18 114 39 30 30 57 55 60 55 2 0 31 -18 63 -41 32
-22 67 -39 77 -37 29 5 27 45 -6 95 -37 56 -38 54 74 171 47 49 85 95 85 103
0 7 7 20 16 30 9 10 13 23 9 28 -11 19 -47 12 -128 -23 -44 -19 -84 -33 -90
-30 -7 2 -28 28 -47 57 -35 51 -62 66 -88 49z m82 -119 c33 -39 69 -43 135
-13 24 11 45 20 48 20 3 0 -32 -39 -77 -87 -86 -92 -105 -123 -94 -156 5 -17
3 -19 -12 -12 -51 21 -70 17 -114 -24 -24 -23 -45 -41 -47 -41 -1 0 1 37 4 83
6 89 1 101 -47 110 -16 3 -10 5 18 6 52 1 86 33 103 94 6 22 15 51 21 66 9 25
11 25 22 7 6 -11 24 -34 40 -53z"/>
<path d="M5075 9448 c-22 -5 -76 -18 -120 -28 -114 -27 -207 -67 -316 -136
-195 -124 -319 -285 -319 -415 0 -110 57 -190 176 -249 63 -31 78 -35 175 -38
l106 -4 6 -47 c15 -117 56 -196 118 -221 43 -18 91 6 119 60 29 58 52 154 48
207 l-3 45 55 18 c71 23 147 58 156 71 3 6 0 17 -8 25 -12 13 -23 11 -84 -14
-38 -16 -81 -32 -96 -36 -25 -6 -28 -4 -28 18 0 13 -3 31 -6 40 -7 17 -6 17
76 36 55 12 100 42 100 66 0 24 -16 23 -76 -1 -88 -36 -107 -34 -130 18 -24
53 -72 80 -115 65 -36 -12 -71 -60 -79 -107 l-6 -36 -77 2 c-60 1 -86 7 -113
23 -53 33 -68 62 -55 103 13 37 86 116 146 156 47 31 268 141 339 167 54 21
78 46 59 65 -8 8 -21 6 -50 -9 -21 -11 -62 -28 -91 -37 -82 -26 -286 -138
-348 -190 -62 -53 -114 -135 -114 -179 0 -47 39 -93 105 -127 59 -30 63 -30
185 -27 l124 2 9 -38 c6 -25 6 -41 -2 -49 -6 -6 -73 -11 -183 -11 -166 -1
-175 0 -228 25 -149 70 -194 174 -131 304 51 107 138 194 284 283 84 52 231
113 300 126 39 7 188 55 197 63 8 7 -24 23 -45 22 -11 -1 -38 -5 -60 -11z
m-172 -655 c-7 -2 -19 -2 -25 0 -7 3 -2 5 12 5 14 0 19 -2 13 -5z m52 -265
c-9 -76 -21 -111 -37 -106 -6 2 -29 38 -50 79 -38 74 -38 74 -15 81 12 3 42 6
65 7 l44 1 -7 -62z m-12 -165 c-7 -2 -19 -2 -25 0 -7 3 -2 5 12 5 14 0 19 -2
13 -5z"/>
<path d="M6304 9439 c-18 -5 -34 -16 -38 -24 -8 -21 38 -49 69 -41 32 8 51 42
34 62 -13 16 -20 16 -65 3z"/>
<path d="M6252 9258 c-66 -26 -173 -123 -203 -184 -19 -40 -21 -56 -15 -116 7
-75 37 -158 57 -158 7 0 8 7 4 18 -13 32 -24 169 -15 205 10 44 39 86 91 131
87 74 184 98 247 60 24 -14 35 -15 43 -7 27 27 -50 74 -118 72 -21 0 -62 -10
-91 -21z"/>
<path d="M3595 9245 c-33 -7 -96 -21 -140 -30 -44 -9 -91 -24 -104 -32 -13 -9
-70 -39 -127 -68 -132 -68 -318 -191 -371 -247 -64 -67 -152 -195 -194 -283
-45 -94 -69 -214 -69 -349 0 -125 21 -214 76 -325 39 -78 62 -110 133 -181 79
-80 98 -93 221 -154 160 -78 251 -103 408 -112 102 -5 134 -2 252 21 236 47
245 60 125 179 -86 87 -115 140 -173 316 -78 236 -86 326 -48 552 43 247 94
387 208 563 62 95 65 109 34 140 -22 22 -33 25 -98 24 -40 -1 -100 -7 -133
-14z m193 -50 c1 -1 -21 -38 -49 -81 -109 -166 -165 -314 -208 -554 -43 -236
-36 -360 35 -575 58 -177 102 -262 178 -342 l67 -71 -68 -15 c-159 -36 -195
-40 -316 -34 -79 4 -149 13 -197 27 -81 23 -223 91 -308 147 -124 82 -237 258
-262 404 -14 84 -8 300 10 364 30 102 127 262 219 358 69 73 292 221 386 257
39 15 82 32 96 38 15 6 29 8 32 5 10 -9 48 8 44 20 -4 12 33 22 183 52 52 10
145 11 158 0z"/>
<path d="M6264 9141 c-82 -38 -144 -129 -144 -215 0 -32 30 -116 42 -116 3 0
4 26 1 59 -13 143 71 245 205 246 71 0 94 17 47 35 -41 15 -106 12 -151 -9z"/>
<path d="M5349 9093 l-1 -28 -8 25 c-6 21 -8 22 -14 8 -14 -33 -3 -63 24 -63
28 0 51 35 43 66 -8 31 -43 24 -44 -8z"/>
<path d="M6280 9041 c-74 -39 -105 -129 -71 -207 24 -54 44 -60 29 -8 -19 71
8 147 64 175 45 23 70 24 107 4 25 -12 31 -12 40 -1 9 11 6 19 -15 35 -34 27
-106 28 -154 2z"/>
<path d="M6309 8932 c-29 -25 -30 -75 -1 -104 l21 -22 -6 37 c-8 50 9 69 53
61 26 -5 34 -3 34 8 0 39 -62 51 -101 20z"/>
<path d="M5855 8800 c-9 -14 47 -80 68 -80 33 0 32 31 -1 62 -33 29 -56 35
-67 18z"/>
<path d="M5581 8709 l-48 -52 -61 12 c-45 9 -67 9 -82 1 -28 -15 -25 -56 7
-86 31 -29 42 -24 23 11 -7 14 -11 27 -8 31 3 3 32 -2 63 -10 66 -17 99 -7
129 38 21 32 36 33 36 2 0 -13 9 -35 21 -50 16 -20 29 -26 60 -26 21 0 39 -4
39 -10 0 -5 -3 -10 -7 -10 -5 -1 -26 -16 -47 -35 -34 -29 -38 -35 -27 -49 19
-23 23 -21 84 28 60 50 72 74 50 105 -11 17 -25 21 -64 21 -54 0 -52 -2 -65
75 -13 72 -39 73 -103 4z"/>
</g>
</svg>
