<svg width="32" height="32" viewBox="0 0 32 32" fill="none" xmlns="http://www.w3.org/2000/svg">
<path d="M16 2.72C8.66663 2.72 2.66662 8.70667 2.66662 16.08C2.66662 22.7467 7.54662 28.28 13.92 29.28L13.92 19.9467L10.5333 19.9467L10.5333 16.08L13.92 16.08L13.92 13.1333C13.92 9.78667 15.9066 7.94667 18.96 7.94667C20.4133 7.94667 21.9333 8.2 21.9333 8.2L21.9333 11.4933L20.2533 11.4933C18.6 11.4933 18.08 12.52 18.08 13.5733L18.08 16.08L21.7866 16.08L21.1866 19.9467L18.08 19.9467L18.08 29.28C21.2219 28.7838 24.0829 27.1807 26.1465 24.7601C28.2102 22.3395 29.3404 19.2609 29.3333 16.08C29.3333 8.70667 23.3333 2.72 16 2.72V2.72Z" fill="#BED6EF"/>
</svg>
