<svg width="32" height="32" viewBox="0 0 32 32" fill="none" xmlns="http://www.w3.org/2000/svg">
<path d="M10.4 2.66666L21.6 2.66666C25.8666 2.66666 29.3333 6.13333 29.3333 10.4L29.3333 21.6C29.3333 23.651 28.5185 25.618 27.0682 27.0683C25.618 28.5186 23.651 29.3333 21.6 29.3333L10.4 29.3333C6.13329 29.3333 2.66662 25.8667 2.66662 21.6L2.66662 10.4C2.66662 8.34898 3.48139 6.38198 4.93167 4.9317C6.38195 3.48142 8.34895 2.66666 10.4 2.66666M10.1333 5.33332C8.86025 5.33332 7.63935 5.83904 6.73918 6.73921C5.839 7.63939 5.33329 8.86028 5.33329 10.1333L5.33329 21.8667C5.33329 24.52 7.47996 26.6667 10.1333 26.6667L21.8666 26.6667C23.1397 26.6667 24.3606 26.1609 25.2607 25.2608C26.1609 24.3606 26.6666 23.1397 26.6666 21.8667L26.6666 10.1333C26.6666 7.47999 24.52 5.33333 21.8666 5.33333L10.1333 5.33332ZM23 7.33333C23.442 7.33333 23.8659 7.50892 24.1785 7.82148C24.491 8.13404 24.6666 8.55797 24.6666 8.99999C24.6666 9.44202 24.491 9.86594 24.1785 10.1785C23.8659 10.4911 23.442 10.6667 23 10.6667C22.5579 10.6667 22.134 10.4911 21.8214 10.1785C21.5089 9.86594 21.3333 9.44202 21.3333 8.99999C21.3333 8.55797 21.5089 8.13404 21.8214 7.82148C22.134 7.50892 22.5579 7.33333 23 7.33333ZM16 9.33333C17.7681 9.33333 19.4638 10.0357 20.714 11.2859C21.9642 12.5362 22.6666 14.2319 22.6666 16C22.6666 17.7681 21.9642 19.4638 20.714 20.714C19.4638 21.9643 17.7681 22.6667 16 22.6667C14.2318 22.6667 12.5362 21.9643 11.2859 20.714C10.0357 19.4638 9.33329 17.7681 9.33329 16C9.33329 14.2319 10.0357 12.5362 11.2859 11.2859C12.5362 10.0357 14.2318 9.33333 16 9.33333M16 12C14.9391 12 13.9217 12.4214 13.1715 13.1716C12.4214 13.9217 12 14.9391 12 16C12 17.0609 12.4214 18.0783 13.1715 18.8284C13.9217 19.5786 14.9391 20 16 20C17.0608 20 18.0782 19.5786 18.8284 18.8284C19.5785 18.0783 20 17.0609 20 16C20 14.9391 19.5785 13.9217 18.8284 13.1716C18.0782 12.4214 17.0608 12 16 12Z" fill="#BED6EF"/>
</svg>
