<svg width="32" height="32" viewBox="0 0 32 32" fill="none" xmlns="http://www.w3.org/2000/svg">
<path d="M31.9312 18.0563C31.9312 20.8063 29.7 23.0375 26.95 23.0375L24.9563 23.0375C24.4063 23.0375 23.9625 22.5938 23.9625 22.0438C23.9625 21.4938 24.4063 21.05 24.9563 21.05L26.95 21.05C28.6 21.05 29.9375 19.7125 29.9375 18.0625C29.9375 16.4125 28.6 15.075 26.95 15.075L26.9375 15.075C25.6437 15.075 24.5374 14.25 24.1249 13.1C24.1249 13.0938 24.1124 13.0875 24.1124 13.075C23.3374 10.8938 21.3312 9.29378 18.9249 9.11878C18.4062 9.15003 17.9937 9.58125 17.9937 10.1063L17.9937 22.0375C17.9937 22.5875 17.5499 23.0313 16.9999 23.0313C16.4499 23.0313 16.0062 22.5875 16.0062 22.0375L16.0062 10.1063C16.0062 8.46875 17.3249 7.14372 18.9562 7.125C22.2062 7.3125 24.9312 9.44375 25.9812 12.3813C25.9874 12.3875 25.9937 12.3938 25.9999 12.3938C26.1312 12.7938 26.5062 13.0813 26.9437 13.0813L26.9562 13.0813C27.0125 13.0813 27.0687 13.0875 27.1187 13.0875L27.15 13.0875C29.8062 13.1938 31.9312 15.375 31.9312 18.0563L31.9312 18.0563ZM13.0125 23.0375C12.4625 23.0375 12.0187 22.5937 12.0187 22.0438L12.0187 11.0875C12.0187 10.5375 12.4625 10.0938 13.0125 10.0938C13.5625 10.0938 14.0062 10.5375 14.0062 11.0875L14.0062 22.0438C14.0062 22.5875 13.5625 23.0375 13.0125 23.0375ZM9.025 23.0375C8.475 23.0375 8.03125 22.5937 8.03125 22.0437L8.03126 10.5875C8.03126 10.0375 8.47501 9.59372 9.02501 9.59372C9.57501 9.59372 10.0188 10.0375 10.0188 10.5875L10.0188 22.0375C10.025 22.5874 9.575 23.0375 9.025 23.0375ZM5.04372 23.0374C4.49372 23.0374 4.04997 22.5937 4.04997 22.0437L4.04997 14.0749C4.04997 13.5249 4.49372 13.0812 5.04372 13.0812C5.59372 13.0812 6.03747 13.5249 6.03747 14.0749L6.03747 22.0437C6.03747 22.5874 5.59372 23.0374 5.04372 23.0374ZM1.06247 21.0437C0.512473 21.0437 0.0687232 20.5999 0.0687233 20.0499L0.068724 16.0687C0.0687241 15.5187 0.512474 15.0749 1.06247 15.0749C1.61247 15.0749 2.05622 15.5187 2.05622 16.0687L2.05622 20.0499C2.05622 20.5999 1.61247 21.0437 1.06247 21.0437ZM20.975 21.0437C21.525 21.0437 21.9687 21.4874 21.9687 22.0374C21.9687 22.5874 21.525 23.0312 20.975 23.0312C20.425 23.0312 19.9812 22.5874 19.9812 22.0374C19.9812 21.4874 20.425 21.0437 20.975 21.0437Z" fill="#BED6EF"/>
</svg>
